<svg width="221" height="64" viewBox="0 0 221 64" fill="none" xmlns="http://www.w3.org/2000/svg">
<rect x="0.5" y="0.5" width="220" height="63" rx="15.5" fill="url(#paint0_linear_1_262)" fill-opacity="0.16"/>
<rect x="0.5" y="0.5" width="220" height="63" rx="15.5" stroke="url(#paint1_linear_1_262)"/>
<g filter="url(#filter1_d_1_262)">
<g clip-path="url(#clip0_1_262)">
<rect x="10" y="10" width="44" height="44" rx="12" fill="white" fill-opacity="0.07" shape-rendering="crispEdges"/>
<path opacity="0.8" d="M23.1368 18.6682C23.8066 18.8066 24.3399 19.2566 24.6713 19.8511L25.7269 21.7449C26.1157 22.4424 26.4429 23.0294 26.6566 23.5397C26.8833 24.081 27.0179 24.6147 26.9564 25.2049C26.8948 25.795 26.653 26.2896 26.3195 26.7724C26.0051 27.2277 25.5638 27.7345 25.0395 28.3368L23.4877 30.1192C23.2097 30.4386 23.0706 30.5982 23.0579 30.7978C23.0452 30.9975 23.1592 31.168 23.3871 31.5089C25.3295 34.4152 27.9474 37.0339 30.8559 38.978C31.197 39.206 31.3674 39.3199 31.567 39.3072C31.7666 39.2945 31.9264 39.1554 32.2457 38.8773L34.0283 37.3256C34.6305 36.8012 35.1374 36.36 35.5927 36.0456C36.0754 35.7121 36.57 35.4702 37.1601 35.4087C37.7503 35.3471 38.2841 35.4817 38.8254 35.7084C39.3356 35.9221 39.9226 36.2493 40.62 36.638L42.514 37.6938C43.1084 38.0251 43.5585 38.5585 43.6969 39.2282C43.8367 39.9049 43.6304 40.5851 43.1747 41.1442C41.5215 43.1725 38.8727 44.4642 36.094 43.9036C34.386 43.559 32.7007 42.985 30.6625 41.8161C26.567 39.4673 22.895 35.7933 20.549 31.7026C19.38 29.6644 18.806 27.9791 18.4615 26.2711C17.9009 23.4923 19.1925 20.8436 21.2209 19.1903C21.7799 18.7347 22.4601 18.5283 23.1368 18.6682Z" fill="#EC009D"/>
<g filter="url(#filter2_f_1_262)">
<circle cx="33.9668" cy="32.9668" r="6" fill="#980884"/>
</g>
</g>
</g>
<path d="M71.1186 25.5V15.3182H74.7479C75.54 15.3182 76.1963 15.4624 76.7166 15.7507C77.237 16.0391 77.6264 16.4335 77.8849 16.9339C78.1435 17.4311 78.2727 17.9912 78.2727 18.6143C78.2727 19.2408 78.1418 19.8042 77.88 20.3047C77.6214 20.8018 77.2304 21.1963 76.7067 21.4879C76.1863 21.7763 75.5317 21.9205 74.7429 21.9205H72.2472V20.6179H74.6037C75.1042 20.6179 75.5102 20.5317 75.8217 20.3594C76.1333 20.1837 76.362 19.9451 76.5078 19.6435C76.6536 19.3419 76.7266 18.9988 76.7266 18.6143C76.7266 18.2299 76.6536 17.8885 76.5078 17.5902C76.362 17.2919 76.1316 17.0582 75.8168 16.8892C75.5052 16.7202 75.0942 16.6357 74.5838 16.6357H72.6548V25.5H71.1186ZM81.4409 20.9659V25.5H79.9544V15.3182H81.421V19.1065H81.5154C81.6944 18.6955 81.9679 18.3691 82.3358 18.1271C82.7037 17.8852 83.1842 17.7642 83.7775 17.7642C84.3012 17.7642 84.7586 17.8719 85.1497 18.0874C85.5441 18.3028 85.849 18.6243 86.0645 19.0518C86.2832 19.4761 86.3926 20.0064 86.3926 20.6428V25.5H84.9061V20.8217C84.9061 20.2616 84.7619 19.8274 84.4735 19.5192C84.1852 19.2076 83.7842 19.0518 83.2704 19.0518C82.9191 19.0518 82.6042 19.1264 82.3258 19.2756C82.0507 19.4247 81.8336 19.6435 81.6745 19.9318C81.5188 20.2169 81.4409 20.5616 81.4409 20.9659ZM91.5929 25.6541C90.877 25.6541 90.2522 25.4901 89.7186 25.1619C89.185 24.8338 88.7707 24.3748 88.4757 23.7848C88.1807 23.1948 88.0332 22.5054 88.0332 21.7166C88.0332 20.9245 88.1807 20.2318 88.4757 19.6385C88.7707 19.0452 89.185 18.5845 89.7186 18.2564C90.2522 17.9283 90.877 17.7642 91.5929 17.7642C92.3088 17.7642 92.9335 17.9283 93.4672 18.2564C94.0008 18.5845 94.4151 19.0452 94.71 19.6385C95.005 20.2318 95.1525 20.9245 95.1525 21.7166C95.1525 22.5054 95.005 23.1948 94.71 23.7848C94.4151 24.3748 94.0008 24.8338 93.4672 25.1619C92.9335 25.4901 92.3088 25.6541 91.5929 25.6541ZM91.5978 24.4062C92.0618 24.4062 92.4463 24.2836 92.7512 24.0384C93.0562 23.7931 93.2815 23.4666 93.4274 23.0589C93.5765 22.6513 93.6511 22.2022 93.6511 21.7116C93.6511 21.2244 93.5765 20.777 93.4274 20.3693C93.2815 19.9583 93.0562 19.6286 92.7512 19.38C92.4463 19.1314 92.0618 19.0071 91.5978 19.0071C91.1305 19.0071 90.7427 19.1314 90.4345 19.38C90.1296 19.6286 89.9025 19.9583 89.7534 20.3693C89.6075 20.777 89.5346 21.2244 89.5346 21.7116C89.5346 22.2022 89.6075 22.6513 89.7534 23.0589C89.9025 23.4666 90.1296 23.7931 90.4345 24.0384C90.7427 24.2836 91.1305 24.4062 91.5978 24.4062ZM98.2983 20.9659V25.5H96.8118V17.8636H98.2386V19.1065H98.3331C98.5088 18.7022 98.7839 18.3774 99.1584 18.1321C99.5362 17.8868 100.012 17.7642 100.585 17.7642C101.106 17.7642 101.561 17.8736 101.952 18.0923C102.344 18.3078 102.647 18.6293 102.862 19.0568C103.078 19.4844 103.185 20.013 103.185 20.6428V25.5H101.699V20.8217C101.699 20.2682 101.555 19.8357 101.266 19.5241C100.978 19.2093 100.582 19.0518 100.078 19.0518C99.7334 19.0518 99.4268 19.1264 99.1584 19.2756C98.8932 19.4247 98.6828 19.6435 98.527 19.9318C98.3745 20.2169 98.2983 20.5616 98.2983 20.9659ZM108.47 25.6541C107.718 25.6541 107.07 25.4934 106.526 25.1719C105.986 24.8471 105.568 24.3913 105.273 23.8047C104.982 23.2147 104.836 22.5237 104.836 21.7315C104.836 20.9493 104.982 20.2599 105.273 19.6634C105.568 19.0668 105.979 18.6011 106.506 18.2663C107.037 17.9316 107.656 17.7642 108.366 17.7642C108.797 17.7642 109.214 17.8355 109.619 17.978C110.023 18.1205 110.386 18.3442 110.707 18.6491C111.029 18.9541 111.282 19.3501 111.468 19.8374C111.654 20.3213 111.746 20.9096 111.746 21.6023V22.1293H105.676V21.0156H110.29C110.29 20.6245 110.21 20.2782 110.051 19.9766C109.892 19.6716 109.668 19.4313 109.38 19.2557C109.095 19.08 108.76 18.9922 108.376 18.9922C107.958 18.9922 107.594 19.0949 107.282 19.3004C106.974 19.5026 106.735 19.7678 106.566 20.0959C106.4 20.4207 106.317 20.7737 106.317 21.1548V22.0249C106.317 22.5353 106.407 22.9695 106.586 23.3274C106.768 23.6854 107.022 23.9588 107.347 24.1477C107.671 24.3333 108.051 24.4261 108.485 24.4261C108.767 24.4261 109.024 24.3864 109.256 24.3068C109.488 24.224 109.688 24.1013 109.857 23.9389C110.026 23.7765 110.156 23.576 110.245 23.3374L111.652 23.5909C111.539 24.0052 111.337 24.3681 111.045 24.6797C110.757 24.9879 110.394 25.2282 109.957 25.4006C109.522 25.5696 109.027 25.6541 108.47 25.6541ZM118.587 20.9659V25.5H117.101V17.8636H118.528V19.1065H118.622C118.798 18.7022 119.073 18.3774 119.447 18.1321C119.825 17.8868 120.301 17.7642 120.874 17.7642C121.395 17.7642 121.85 17.8736 122.241 18.0923C122.633 18.3078 122.936 18.6293 123.151 19.0568C123.367 19.4844 123.474 20.013 123.474 20.6428V25.5H121.988V20.8217C121.988 20.2682 121.844 19.8357 121.555 19.5241C121.267 19.2093 120.871 19.0518 120.367 19.0518C120.022 19.0518 119.716 19.1264 119.447 19.2756C119.182 19.4247 118.972 19.6435 118.816 19.9318C118.664 20.2169 118.587 20.5616 118.587 20.9659ZM130.305 22.3331V17.8636H131.797V25.5H130.335V24.1776H130.256C130.08 24.5852 129.798 24.925 129.411 25.1967C129.026 25.4652 128.547 25.5994 127.974 25.5994C127.483 25.5994 127.049 25.4917 126.671 25.2763C126.297 25.0575 126.002 24.7344 125.786 24.3068C125.574 23.8793 125.468 23.3506 125.468 22.7209V17.8636H126.955V22.5419C126.955 23.0623 127.099 23.4766 127.387 23.7848C127.675 24.093 128.05 24.2472 128.511 24.2472C128.789 24.2472 129.066 24.1776 129.341 24.0384C129.619 23.8991 129.85 23.6887 130.032 23.407C130.218 23.1252 130.309 22.7673 130.305 22.3331ZM133.794 25.5V17.8636H135.221V19.1065H135.316C135.475 18.6856 135.735 18.3575 136.096 18.1222C136.457 17.8835 136.89 17.7642 137.394 17.7642C137.904 17.7642 138.332 17.8835 138.676 18.1222C139.024 18.3608 139.281 18.6889 139.447 19.1065H139.526C139.709 18.6989 139.999 18.3741 140.396 18.1321C140.794 17.8868 141.268 17.7642 141.818 17.7642C142.511 17.7642 143.076 17.9813 143.514 18.4155C143.954 18.8497 144.175 19.5043 144.175 20.3793V25.5H142.688V20.5185C142.688 20.0014 142.548 19.6269 142.266 19.3949C141.984 19.1629 141.648 19.0469 141.257 19.0469C140.773 19.0469 140.396 19.196 140.128 19.4943C139.86 19.7893 139.725 20.1688 139.725 20.6328V25.5H138.244V20.424C138.244 20.0097 138.115 19.6766 137.856 19.4247C137.597 19.1728 137.261 19.0469 136.847 19.0469C136.565 19.0469 136.305 19.1214 136.066 19.2706C135.831 19.4164 135.64 19.6203 135.494 19.8821C135.352 20.1439 135.281 20.4472 135.281 20.7919V25.5H133.794ZM146.287 25.5V15.3182H147.773V19.1016H147.863C147.949 18.9425 148.073 18.7585 148.235 18.5497C148.398 18.3409 148.623 18.1586 148.912 18.0028C149.2 17.8438 149.581 17.7642 150.055 17.7642C150.672 17.7642 151.222 17.92 151.706 18.2315C152.19 18.5431 152.569 18.9922 152.844 19.5788C153.123 20.1655 153.262 20.8714 153.262 21.6967C153.262 22.522 153.124 23.2296 152.849 23.8196C152.574 24.4062 152.196 24.8587 151.716 25.1768C151.235 25.4917 150.686 25.6491 150.07 25.6491C149.606 25.6491 149.226 25.5713 148.931 25.4155C148.64 25.2597 148.411 25.0774 148.245 24.8686C148.08 24.6598 147.952 24.4742 147.863 24.3118H147.738V25.5H146.287ZM147.743 21.6818C147.743 22.2187 147.821 22.6894 147.977 23.0938C148.133 23.4981 148.358 23.8146 148.653 24.0433C148.948 24.2687 149.309 24.3814 149.737 24.3814C150.181 24.3814 150.552 24.2637 150.85 24.0284C151.149 23.7898 151.374 23.4666 151.527 23.0589C151.682 22.6513 151.76 22.1922 151.76 21.6818C151.76 21.178 151.684 20.7256 151.532 20.3246C151.382 19.9235 151.157 19.607 150.855 19.375C150.557 19.143 150.184 19.027 149.737 19.027C149.306 19.027 148.941 19.138 148.643 19.3601C148.348 19.5821 148.124 19.892 147.972 20.2898C147.819 20.6875 147.743 21.1515 147.743 21.6818ZM158.222 25.6541C157.47 25.6541 156.822 25.4934 156.278 25.1719C155.738 24.8471 155.32 24.3913 155.025 23.8047C154.734 23.2147 154.588 22.5237 154.588 21.7315C154.588 20.9493 154.734 20.2599 155.025 19.6634C155.32 19.0668 155.731 18.6011 156.258 18.2663C156.789 17.9316 157.408 17.7642 158.118 17.7642C158.549 17.7642 158.966 17.8355 159.371 17.978C159.775 18.1205 160.138 18.3442 160.459 18.6491C160.781 18.9541 161.034 19.3501 161.22 19.8374C161.406 20.3213 161.498 20.9096 161.498 21.6023V22.1293H155.428V21.0156H160.042C160.042 20.6245 159.962 20.2782 159.803 19.9766C159.644 19.6716 159.42 19.4313 159.132 19.2557C158.847 19.08 158.512 18.9922 158.128 18.9922C157.71 18.9922 157.345 19.0949 157.034 19.3004C156.726 19.5026 156.487 19.7678 156.318 20.0959C156.152 20.4207 156.069 20.7737 156.069 21.1548V22.0249C156.069 22.5353 156.159 22.9695 156.338 23.3274C156.52 23.6854 156.774 23.9588 157.099 24.1477C157.423 24.3333 157.803 24.4261 158.237 24.4261C158.519 24.4261 158.776 24.3864 159.008 24.3068C159.24 24.224 159.44 24.1013 159.609 23.9389C159.778 23.7765 159.907 23.576 159.997 23.3374L161.404 23.5909C161.291 24.0052 161.089 24.3681 160.797 24.6797C160.509 24.9879 160.146 25.2282 159.709 25.4006C159.274 25.5696 158.779 25.6541 158.222 25.6541ZM163.148 25.5V17.8636H164.585V19.0767H164.664C164.803 18.6657 165.049 18.3426 165.4 18.1072C165.754 17.8686 166.156 17.7493 166.603 17.7493C166.696 17.7493 166.805 17.7526 166.931 17.7592C167.06 17.7659 167.161 17.7741 167.234 17.7841V19.206C167.175 19.1894 167.069 19.1712 166.916 19.1513C166.764 19.1281 166.611 19.1165 166.459 19.1165C166.107 19.1165 165.794 19.1911 165.519 19.3402C165.247 19.486 165.032 19.6899 164.873 19.9517C164.714 20.2102 164.634 20.5052 164.634 20.8366V25.5H163.148ZM174.243 19.728L172.896 19.9666C172.839 19.7943 172.75 19.6302 172.627 19.4744C172.508 19.3187 172.346 19.1911 172.14 19.0916C171.935 18.9922 171.678 18.9425 171.369 18.9425C170.949 18.9425 170.597 19.0369 170.316 19.2259C170.034 19.4115 169.893 19.6518 169.893 19.9467C169.893 20.2019 169.987 20.4074 170.176 20.5632C170.365 20.719 170.67 20.8466 171.091 20.946L172.304 21.2244C173.007 21.3868 173.53 21.6371 173.875 21.9751C174.22 22.3132 174.392 22.7524 174.392 23.2926C174.392 23.75 174.26 24.1577 173.994 24.5156C173.733 24.8703 173.366 25.1487 172.896 25.3509C172.428 25.553 171.887 25.6541 171.27 25.6541C170.415 25.6541 169.717 25.4718 169.177 25.1072C168.637 24.7393 168.305 24.2173 168.183 23.5412L169.619 23.3224C169.709 23.697 169.893 23.9804 170.171 24.1726C170.45 24.3615 170.813 24.456 171.26 24.456C171.747 24.456 172.137 24.3549 172.428 24.1527C172.72 23.9472 172.866 23.697 172.866 23.402C172.866 23.1634 172.776 22.9628 172.597 22.8004C172.422 22.638 172.152 22.5154 171.787 22.4325L170.494 22.1491C169.782 21.9867 169.255 21.7282 168.914 21.3736C168.575 21.0189 168.406 20.5698 168.406 20.0263C168.406 19.5755 168.532 19.1811 168.784 18.843C169.036 18.505 169.384 18.2415 169.828 18.0526C170.272 17.8603 170.781 17.7642 171.355 17.7642C172.18 17.7642 172.829 17.9432 173.303 18.3011C173.777 18.6558 174.091 19.1314 174.243 19.728Z" fill="#CAC6DD"/>
<path d="M74.5625 46.5455V38.8636H76.0909V46.5455H74.5625ZM71.4886 43.4659V41.9432H79.1705V43.4659H71.4886ZM85.6903 36.8636V48.5H83.929V38.625H83.8608L81.0767 40.4432V38.7614L83.9801 36.8636H85.6903ZM92.5895 42.6818C92.5895 41.2576 92.777 39.947 93.152 38.75C93.527 37.553 94.0743 36.4489 94.794 35.4375H96.3509C96.0705 35.8125 95.8092 36.2727 95.5668 36.8182C95.3243 37.3636 95.1122 37.9621 94.9304 38.6136C94.7486 39.2614 94.6065 39.9337 94.5043 40.6307C94.402 41.3239 94.3509 42.0076 94.3509 42.6818C94.3509 43.5833 94.4399 44.4962 94.6179 45.4205C94.7959 46.3447 95.0365 47.2027 95.3395 47.9943C95.6425 48.786 95.9796 49.4318 96.3509 49.9318H94.794C94.0743 48.9205 93.527 47.8163 93.152 46.6193C92.777 45.4223 92.5895 44.1098 92.5895 42.6818ZM97.375 46.2273V44.8068L102.403 36.8636H103.523V38.9545H102.812L99.2159 44.6477V44.7386H106.108V46.2273H97.375ZM102.892 48.5V45.7955L102.903 45.1477V36.8636H104.568V48.5H102.892ZM111.429 48.6591C110.717 48.6591 110.077 48.5227 109.509 48.25C108.944 47.9735 108.493 47.5947 108.156 47.1136C107.819 46.6326 107.639 46.0833 107.616 45.4659H109.321C109.363 45.9659 109.584 46.3769 109.986 46.6989C110.387 47.0208 110.868 47.1818 111.429 47.1818C111.876 47.1818 112.272 47.0795 112.616 46.875C112.965 46.6667 113.238 46.3807 113.435 46.017C113.635 45.6534 113.736 45.2386 113.736 44.7727C113.736 44.2992 113.634 43.8769 113.429 43.5057C113.224 43.1345 112.942 42.8428 112.582 42.6307C112.226 42.4186 111.817 42.3106 111.355 42.3068C111.003 42.3068 110.649 42.3674 110.293 42.4886C109.937 42.6098 109.649 42.7689 109.429 42.9659L107.821 42.7273L108.474 36.8636H114.872V38.3693H109.935L109.565 41.625H109.634C109.861 41.4053 110.162 41.2216 110.537 41.0739C110.916 40.9261 111.321 40.8523 111.753 40.8523C112.461 40.8523 113.092 41.0208 113.645 41.358C114.202 41.6951 114.639 42.1553 114.957 42.7386C115.279 43.3182 115.438 43.9848 115.435 44.7386C115.438 45.4924 115.268 46.1648 114.923 46.7557C114.582 47.3466 114.109 47.8125 113.503 48.1534C112.901 48.4905 112.209 48.6591 111.429 48.6591ZM121.072 48.6591C120.554 48.6515 120.042 48.5568 119.538 48.375C119.038 48.1932 118.584 47.8902 118.175 47.4659C117.766 47.0417 117.438 46.4716 117.192 45.7557C116.949 45.0398 116.828 44.1458 116.828 43.0739C116.828 42.0587 116.929 41.1572 117.129 40.3693C117.334 39.5814 117.627 38.9167 118.01 38.375C118.393 37.8295 118.855 37.4148 119.396 37.1307C119.938 36.8466 120.546 36.7045 121.22 36.7045C121.913 36.7045 122.529 36.8409 123.067 37.1136C123.605 37.3864 124.04 37.7633 124.374 38.2443C124.711 38.7254 124.925 39.2727 125.016 39.8864H123.283C123.165 39.4015 122.932 39.0057 122.584 38.6989C122.235 38.392 121.781 38.2386 121.22 38.2386C120.368 38.2386 119.703 38.6098 119.226 39.3523C118.752 40.0947 118.514 41.1269 118.51 42.4489H118.595C118.796 42.1193 119.042 41.839 119.334 41.608C119.629 41.3731 119.959 41.1932 120.322 41.0682C120.69 40.9394 121.076 40.875 121.482 40.875C122.156 40.875 122.766 41.0398 123.311 41.3693C123.86 41.6951 124.298 42.1458 124.624 42.7216C124.949 43.2973 125.112 43.9564 125.112 44.6989C125.112 45.4413 124.944 46.1136 124.607 46.7159C124.273 47.3182 123.804 47.7955 123.197 48.1477C122.591 48.4962 121.883 48.6667 121.072 48.6591ZM121.067 47.1818C121.514 47.1818 121.913 47.072 122.266 46.8523C122.618 46.6326 122.896 46.3371 123.101 45.9659C123.305 45.5947 123.408 45.1799 123.408 44.7216C123.408 44.2746 123.307 43.8674 123.107 43.5C122.91 43.1326 122.637 42.8409 122.288 42.625C121.944 42.4091 121.55 42.3011 121.107 42.3011C120.769 42.3011 120.457 42.3655 120.169 42.4943C119.885 42.6231 119.635 42.8011 119.419 43.0284C119.203 43.2557 119.033 43.517 118.908 43.8125C118.786 44.1042 118.726 44.4129 118.726 44.7386C118.726 45.1742 118.826 45.5777 119.027 45.9489C119.232 46.3201 119.51 46.6193 119.862 46.8466C120.218 47.0701 120.62 47.1818 121.067 47.1818ZM129.972 42.6818C129.972 44.1098 129.784 45.4223 129.409 46.6193C129.034 47.8163 128.487 48.9205 127.767 49.9318H126.21C126.491 49.5568 126.752 49.0966 126.994 48.5511C127.237 48.0057 127.449 47.4091 127.631 46.7614C127.813 46.1098 127.955 45.4356 128.057 44.7386C128.159 44.0417 128.21 43.3561 128.21 42.6818C128.21 41.7841 128.121 40.8731 127.943 39.9489C127.765 39.0246 127.525 38.1667 127.222 37.375C126.919 36.5833 126.581 35.9375 126.21 35.4375H127.767C128.487 36.4489 129.034 37.553 129.409 38.75C129.784 39.947 129.972 41.2576 129.972 42.6818ZM135.719 46.2273V44.8068L140.747 36.8636H141.866V38.9545H141.156L137.56 44.6477V44.7386H144.452V46.2273H135.719ZM141.236 48.5V45.7955L141.247 45.1477V36.8636H142.912V48.5H141.236ZM149.773 48.6591C149.061 48.6591 148.42 48.5227 147.852 48.25C147.288 47.9735 146.837 47.5947 146.5 47.1136C146.163 46.6326 145.983 46.0833 145.96 45.4659H147.665C147.706 45.9659 147.928 46.3769 148.33 46.6989C148.731 47.0208 149.212 47.1818 149.773 47.1818C150.22 47.1818 150.616 47.0795 150.96 46.875C151.309 46.6667 151.581 46.3807 151.778 46.017C151.979 45.6534 152.08 45.2386 152.08 44.7727C152.08 44.2992 151.977 43.8769 151.773 43.5057C151.568 43.1345 151.286 42.8428 150.926 42.6307C150.57 42.4186 150.161 42.3106 149.699 42.3068C149.347 42.3068 148.992 42.3674 148.636 42.4886C148.28 42.6098 147.992 42.7689 147.773 42.9659L146.165 42.7273L146.818 36.8636H153.216V38.3693H148.278L147.909 41.625H147.977C148.205 41.4053 148.506 41.2216 148.881 41.0739C149.259 40.9261 149.665 40.8523 150.097 40.8523C150.805 40.8523 151.436 41.0208 151.989 41.358C152.545 41.6951 152.983 42.1553 153.301 42.7386C153.623 43.3182 153.782 43.9848 153.778 44.7386C153.782 45.4924 153.612 46.1648 153.267 46.7557C152.926 47.3466 152.453 47.8125 151.847 48.1534C151.244 48.4905 150.553 48.6591 149.773 48.6591ZM159.405 48.6591C158.625 48.6591 157.928 48.5246 157.314 48.2557C156.704 47.9867 156.221 47.6136 155.865 47.1364C155.513 46.6553 155.323 46.0985 155.297 45.4659H157.081C157.104 45.8106 157.219 46.1098 157.428 46.3636C157.64 46.6136 157.916 46.8068 158.257 46.9432C158.598 47.0795 158.977 47.1477 159.393 47.1477C159.852 47.1477 160.257 47.0682 160.609 46.9091C160.965 46.75 161.244 46.5284 161.445 46.2443C161.645 45.9564 161.746 45.625 161.746 45.25C161.746 44.8598 161.645 44.517 161.445 44.2216C161.248 43.9223 160.958 43.6875 160.575 43.517C160.196 43.3466 159.738 43.2614 159.2 43.2614H158.217V41.8295H159.2C159.632 41.8295 160.011 41.7519 160.337 41.5966C160.666 41.4413 160.924 41.2254 161.109 40.9489C161.295 40.6686 161.388 40.3409 161.388 39.9659C161.388 39.6061 161.306 39.2936 161.143 39.0284C160.984 38.7595 160.757 38.5492 160.462 38.3977C160.17 38.2462 159.825 38.1705 159.428 38.1705C159.049 38.1705 158.695 38.2405 158.365 38.3807C158.039 38.517 157.774 38.714 157.57 38.9716C157.365 39.2254 157.255 39.5303 157.24 39.8864H155.541C155.56 39.2576 155.746 38.7045 156.098 38.2273C156.454 37.75 156.924 37.3769 157.507 37.108C158.09 36.839 158.738 36.7045 159.45 36.7045C160.196 36.7045 160.84 36.8504 161.382 37.142C161.928 37.4299 162.348 37.8144 162.643 38.2955C162.943 38.7765 163.09 39.303 163.087 39.875C163.09 40.5265 162.909 41.0795 162.541 41.5341C162.178 41.9886 161.693 42.2936 161.087 42.4489V42.5398C161.859 42.6572 162.458 42.964 162.882 43.4602C163.31 43.9564 163.522 44.572 163.518 45.3068C163.522 45.947 163.344 46.5208 162.984 47.0284C162.628 47.536 162.142 47.9356 161.524 48.2273C160.907 48.5152 160.2 48.6591 159.405 48.6591ZM170.331 41.9432V43.4205H165.172V41.9432H170.331ZM175.967 48.6591C175.187 48.6591 174.49 48.5246 173.876 48.2557C173.267 47.9867 172.784 47.6136 172.428 47.1364C172.075 46.6553 171.886 46.0985 171.859 45.4659H173.643C173.666 45.8106 173.782 46.1098 173.99 46.3636C174.202 46.6136 174.479 46.8068 174.82 46.9432C175.161 47.0795 175.539 47.1477 175.956 47.1477C176.414 47.1477 176.82 47.0682 177.172 46.9091C177.528 46.75 177.806 46.5284 178.007 46.2443C178.208 45.9564 178.308 45.625 178.308 45.25C178.308 44.8598 178.208 44.517 178.007 44.2216C177.81 43.9223 177.52 43.6875 177.138 43.517C176.759 43.3466 176.301 43.2614 175.763 43.2614H174.78V41.8295H175.763C176.195 41.8295 176.573 41.7519 176.899 41.5966C177.229 41.4413 177.486 41.2254 177.672 40.9489C177.857 40.6686 177.95 40.3409 177.95 39.9659C177.95 39.6061 177.869 39.2936 177.706 39.0284C177.547 38.7595 177.32 38.5492 177.024 38.3977C176.732 38.2462 176.388 38.1705 175.99 38.1705C175.611 38.1705 175.257 38.2405 174.928 38.3807C174.602 38.517 174.337 38.714 174.132 38.9716C173.928 39.2254 173.818 39.5303 173.803 39.8864H172.104C172.123 39.2576 172.308 38.7045 172.661 38.2273C173.017 37.75 173.486 37.3769 174.07 37.108C174.653 36.839 175.301 36.7045 176.013 36.7045C176.759 36.7045 177.403 36.8504 177.945 37.142C178.49 37.4299 178.911 37.8144 179.206 38.2955C179.505 38.7765 179.653 39.303 179.649 39.875C179.653 40.5265 179.471 41.0795 179.104 41.5341C178.74 41.9886 178.255 42.2936 177.649 42.4489V42.5398C178.422 42.6572 179.02 42.964 179.445 43.4602C179.873 43.9564 180.085 44.572 180.081 45.3068C180.085 45.947 179.907 46.5208 179.547 47.0284C179.191 47.536 178.704 47.9356 178.087 48.2273C177.469 48.5152 176.763 48.6591 175.967 48.6591ZM181.484 46.2273V44.8068L186.513 36.8636H187.632V38.9545H186.922L183.325 44.6477V44.7386H190.217V46.2273H181.484ZM187.001 48.5V45.7955L187.013 45.1477V36.8636H188.678V48.5H187.001ZM195.538 48.6591C194.826 48.6591 194.186 48.5227 193.618 48.25C193.054 47.9735 192.603 47.5947 192.266 47.1136C191.929 46.6326 191.749 46.0833 191.726 45.4659H193.43C193.472 45.9659 193.694 46.3769 194.095 46.6989C194.497 47.0208 194.978 47.1818 195.538 47.1818C195.985 47.1818 196.381 47.0795 196.726 46.875C197.074 46.6667 197.347 46.3807 197.544 46.017C197.745 45.6534 197.845 45.2386 197.845 44.7727C197.845 44.2992 197.743 43.8769 197.538 43.5057C197.334 43.1345 197.052 42.8428 196.692 42.6307C196.336 42.4186 195.927 42.3106 195.464 42.3068C195.112 42.3068 194.758 42.3674 194.402 42.4886C194.046 42.6098 193.758 42.7689 193.538 42.9659L191.93 42.7273L192.584 36.8636H198.982V38.3693H194.044L193.675 41.625H193.743C193.97 41.4053 194.271 41.2216 194.646 41.0739C195.025 40.9261 195.43 40.8523 195.862 40.8523C196.571 40.8523 197.201 41.0208 197.754 41.358C198.311 41.6951 198.749 42.1553 199.067 42.7386C199.389 43.3182 199.548 43.9848 199.544 44.7386C199.548 45.4924 199.377 46.1648 199.033 46.7557C198.692 47.3466 198.218 47.8125 197.612 48.1534C197.01 48.4905 196.319 48.6591 195.538 48.6591ZM205.182 48.6591C204.663 48.6515 204.152 48.5568 203.648 48.375C203.148 48.1932 202.693 47.8902 202.284 47.4659C201.875 47.0417 201.547 46.4716 201.301 45.7557C201.059 45.0398 200.938 44.1458 200.938 43.0739C200.938 42.0587 201.038 41.1572 201.239 40.3693C201.443 39.5814 201.737 38.9167 202.119 38.375C202.502 37.8295 202.964 37.4148 203.506 37.1307C204.047 36.8466 204.655 36.7045 205.33 36.7045C206.023 36.7045 206.638 36.8409 207.176 37.1136C207.714 37.3864 208.15 37.7633 208.483 38.2443C208.82 38.7254 209.034 39.2727 209.125 39.8864H207.392C207.275 39.4015 207.042 39.0057 206.693 38.6989C206.345 38.392 205.89 38.2386 205.33 38.2386C204.477 38.2386 203.813 38.6098 203.335 39.3523C202.862 40.0947 202.623 41.1269 202.619 42.4489H202.705C202.905 42.1193 203.152 41.839 203.443 41.608C203.739 41.3731 204.068 41.1932 204.432 41.0682C204.799 40.9394 205.186 40.875 205.591 40.875C206.265 40.875 206.875 41.0398 207.42 41.3693C207.97 41.6951 208.407 42.1458 208.733 42.7216C209.059 43.2973 209.222 43.9564 209.222 44.6989C209.222 45.4413 209.053 46.1136 208.716 46.7159C208.383 47.3182 207.913 47.7955 207.307 48.1477C206.701 48.4962 205.992 48.6667 205.182 48.6591ZM205.176 47.1818C205.623 47.1818 206.023 47.072 206.375 46.8523C206.727 46.6326 207.006 46.3371 207.21 45.9659C207.415 45.5947 207.517 45.1799 207.517 44.7216C207.517 44.2746 207.417 43.8674 207.216 43.5C207.019 43.1326 206.746 42.8409 206.398 42.625C206.053 42.4091 205.659 42.3011 205.216 42.3011C204.879 42.3011 204.566 42.3655 204.278 42.4943C203.994 42.6231 203.744 42.8011 203.528 43.0284C203.313 43.2557 203.142 43.517 203.017 43.8125C202.896 44.1042 202.835 44.4129 202.835 44.7386C202.835 45.1742 202.936 45.5777 203.136 45.9489C203.341 46.3201 203.619 46.6193 203.972 46.8466C204.328 47.0701 204.729 47.1818 205.176 47.1818Z" fill="#CAC6DD"/>
<defs>
<filter id="filter1_d_1_262" x="9" y="9" width="46" height="46" filterUnits="userSpaceOnUse" color-interpolation-filters="sRGB">
<feFlood flood-opacity="0" result="BackgroundImageFix"/>
<feColorMatrix in="SourceAlpha" type="matrix" values="0 0 0 0 0 0 0 0 0 0 0 0 0 0 0 0 0 0 127 0" result="hardAlpha"/>
<feMorphology radius="1" operator="dilate" in="SourceAlpha" result="effect1_dropShadow_1_262"/>
<feOffset/>
<feComposite in2="hardAlpha" operator="out"/>
<feColorMatrix type="matrix" values="0 0 0 0 0.176471 0 0 0 0 0.180392 0 0 0 0 0.282353 0 0 0 1 0"/>
<feBlend mode="normal" in2="BackgroundImageFix" result="effect1_dropShadow_1_262"/>
<feBlend mode="normal" in="SourceGraphic" in2="effect1_dropShadow_1_262" result="shape"/>
</filter>
<filter id="filter2_f_1_262" x="10.3668" y="9.3668" width="47.2" height="47.2" filterUnits="userSpaceOnUse" color-interpolation-filters="sRGB">
<feFlood flood-opacity="0" result="BackgroundImageFix"/>
<feBlend mode="normal" in="SourceGraphic" in2="BackgroundImageFix" result="shape"/>
<feGaussianBlur stdDeviation="8.8" result="effect1_foregroundBlur_1_262"/>
</filter>
<linearGradient id="paint0_linear_1_262" x1="110.5" y1="-2.61303e-06" x2="123.293" y2="47.9312" gradientUnits="userSpaceOnUse">
<stop stop-color="#1B1C36"/>
<stop offset="1" stop-color="#70717A"/>
</linearGradient>
<linearGradient id="paint1_linear_1_262" x1="221" y1="60.0976" x2="27.6" y2="-40.414" gradientUnits="userSpaceOnUse">
<stop stop-color="white" stop-opacity="0.07"/>
<stop offset="1" stop-color="white" stop-opacity="0.15"/>
</linearGradient>
<clipPath id="clip0_1_262">
<rect x="10" y="10" width="44" height="44" rx="12" fill="white"/>
</clipPath>
</defs>
</svg>
