<svg width="211" height="64" viewBox="0 0 211 64" fill="none" xmlns="http://www.w3.org/2000/svg">
<rect x="0.5" y="0.5" width="210" height="63" rx="15.5" fill="url(#paint0_linear_1_292)" fill-opacity="0.16"/>
<rect x="0.5" y="0.5" width="210" height="63" rx="15.5" stroke="url(#paint1_linear_1_292)"/>
<g filter="url(#filter1_d_1_292)">
<rect x="10" y="10" width="44" height="44" rx="12" fill="white" fill-opacity="0.07" shape-rendering="crispEdges"/>
<path opacity="0.4" d="M43.8857 31.2449C43.8857 33.2824 43.8857 34.8966 43.723 36.1724C43.5556 37.4855 43.204 38.5559 42.4167 39.4389C42.183 39.7011 41.9261 39.9428 41.6489 40.1616C40.7231 40.8928 39.6094 41.2163 38.2359 41.3715C36.8902 41.5234 35.1835 41.5234 33.01 41.5234H29.3522C27.1788 41.5234 25.4719 41.5234 24.1263 41.3715C22.7529 41.2163 21.6391 40.8928 20.7133 40.1616C20.4361 39.9428 20.1792 39.701 19.9455 39.4389C19.1582 38.5559 18.8067 37.4855 18.6392 36.1724C18.4765 34.8966 18.4766 33.2823 18.4766 31.2448V31.1202C18.4766 30.4398 18.4766 29.8065 18.4826 29.2173C18.486 28.8915 18.4876 28.7286 18.5912 28.626C18.6949 28.5234 18.859 28.5234 19.1873 28.5234H43.1749C43.5032 28.5234 43.6674 28.5234 43.771 28.626C43.8745 28.7286 43.8763 28.8915 43.8796 29.2173C43.8857 29.8064 43.8857 30.4398 43.8857 31.1202V31.2449Z" fill="#94E52F"/>
<path d="M33.0126 20.8418C35.1859 20.8418 36.8927 20.8418 38.2383 20.9938C39.6118 21.1489 40.7256 21.4724 41.6514 22.2036C41.9286 22.4225 42.1855 22.6642 42.4191 22.9263C43.2065 23.8094 43.5581 24.8797 43.7255 26.1929C43.7448 26.344 43.7544 26.4195 43.7371 26.4859C43.7093 26.592 43.628 26.6844 43.5263 26.7253C43.4627 26.7509 43.383 26.7509 43.2237 26.7509H19.1435C18.9842 26.7509 18.9046 26.7509 18.8409 26.7253C18.7392 26.6844 18.6578 26.592 18.6301 26.4859C18.6128 26.4195 18.6224 26.344 18.6417 26.1929C18.8092 24.8797 19.1607 23.8094 19.948 22.9263C20.1817 22.6642 20.4386 22.4225 20.7158 22.2036C21.6416 21.4724 22.7554 21.1489 24.1288 20.9938C25.4744 20.8418 27.1813 20.8418 29.3547 20.8418H33.0126Z" fill="#94E52F"/>
<path fill-rule="evenodd" clip-rule="evenodd" d="M29.1133 35.9098C29.1133 35.4203 29.5101 35.0234 29.9996 35.0234H31.7724C32.2619 35.0234 32.6587 35.4203 32.6587 35.9098C32.6587 36.3993 32.2619 36.7962 31.7724 36.7962H29.9996C29.5101 36.7962 29.1133 36.3993 29.1133 35.9098Z" fill="#94E52F"/>
<path fill-rule="evenodd" clip-rule="evenodd" d="M34.4316 35.9098C34.4316 35.4203 34.8285 35.0234 35.318 35.0234H39.4544C39.9439 35.0234 40.3407 35.4203 40.3407 35.9098C40.3407 36.3993 39.9439 36.7962 39.4544 36.7962H35.318C34.8285 36.7962 34.4316 36.3993 34.4316 35.9098Z" fill="#94E52F"/>
</g>
<path d="M79.5753 18.6293H78.0241C77.9645 18.2978 77.8535 18.0062 77.6911 17.7543C77.5286 17.5024 77.3298 17.2886 77.0945 17.1129C76.8591 16.9373 76.5956 16.8047 76.304 16.7152C76.0156 16.6257 75.709 16.581 75.3842 16.581C74.7976 16.581 74.2723 16.7285 73.8082 17.0234C73.3475 17.3184 72.983 17.7509 72.7145 18.321C72.4493 18.8911 72.3168 19.5871 72.3168 20.4091C72.3168 21.2377 72.4493 21.937 72.7145 22.5071C72.983 23.0772 73.3492 23.508 73.8132 23.7997C74.2772 24.0914 74.7992 24.2372 75.3793 24.2372C75.7008 24.2372 76.0057 24.1941 76.294 24.108C76.5857 24.0185 76.8492 23.8875 77.0845 23.7152C77.3198 23.5429 77.5187 23.3324 77.6811 23.0838C77.8468 22.8319 77.9612 22.5436 78.0241 22.2188L79.5753 22.2237C79.4924 22.7242 79.3317 23.1849 79.093 23.6058C78.8577 24.0234 78.5545 24.3847 78.1832 24.6896C77.8153 24.9912 77.3944 25.2249 76.9205 25.3906C76.4465 25.5563 75.9295 25.6392 75.3693 25.6392C74.4877 25.6392 73.7022 25.4304 73.0128 25.0128C72.3234 24.5919 71.7798 23.9903 71.3821 23.2081C70.9877 22.4259 70.7905 21.4929 70.7905 20.4091C70.7905 19.322 70.9893 18.389 71.3871 17.6101C71.7848 16.8279 72.3284 16.228 73.0178 15.8104C73.7071 15.3894 74.491 15.179 75.3693 15.179C75.9096 15.179 76.4134 15.2569 76.8807 15.4126C77.3513 15.5651 77.7739 15.7905 78.1484 16.0888C78.523 16.3838 78.8329 16.745 79.0781 17.1726C79.3234 17.5968 79.4891 18.0824 79.5753 18.6293ZM81.2942 25.5V17.8636H82.731V19.0767H82.8105C82.9498 18.6657 83.195 18.3426 83.5463 18.1072C83.901 17.8686 84.302 17.7493 84.7495 17.7493C84.8423 17.7493 84.9516 17.7526 85.0776 17.7592C85.2069 17.7659 85.3079 17.7741 85.3809 17.7841V19.206C85.3212 19.1894 85.2151 19.1712 85.0627 19.1513C84.9102 19.1281 84.7578 19.1165 84.6053 19.1165C84.254 19.1165 83.9408 19.1911 83.6657 19.3402C83.3939 19.486 83.1784 19.6899 83.0194 19.9517C82.8603 20.2102 82.7807 20.5052 82.7807 20.8366V25.5H81.2942ZM89.685 25.6541C88.9326 25.6541 88.2847 25.4934 87.7411 25.1719C87.2009 24.8471 86.7833 24.3913 86.4883 23.8047C86.1966 23.2147 86.0508 22.5237 86.0508 21.7315C86.0508 20.9493 86.1966 20.2599 86.4883 19.6634C86.7833 19.0668 87.1942 18.6011 87.7212 18.2663C88.2515 17.9316 88.8713 17.7642 89.5806 17.7642C90.0115 17.7642 90.4291 17.8355 90.8335 17.978C91.2378 18.1205 91.6007 18.3442 91.9222 18.6491C92.2437 18.9541 92.4973 19.3501 92.6829 19.8374C92.8685 20.3213 92.9613 20.9096 92.9613 21.6023V22.1293H86.891V21.0156H91.5046C91.5046 20.6245 91.4251 20.2782 91.266 19.9766C91.1069 19.6716 90.8832 19.4313 90.5948 19.2557C90.3098 19.08 89.975 18.9922 89.5906 18.9922C89.1729 18.9922 88.8084 19.0949 88.4968 19.3004C88.1886 19.5026 87.9499 19.7678 87.7809 20.0959C87.6152 20.4207 87.5323 20.7737 87.5323 21.1548V22.0249C87.5323 22.5353 87.6218 22.9695 87.8008 23.3274C87.9831 23.6854 88.2366 23.9588 88.5614 24.1477C88.8862 24.3333 89.2657 24.4261 89.6999 24.4261C89.9817 24.4261 90.2385 24.3864 90.4705 24.3068C90.7025 24.224 90.9031 24.1013 91.0721 23.9389C91.2411 23.7765 91.3704 23.576 91.4599 23.3374L92.8668 23.5909C92.7541 24.0052 92.552 24.3681 92.2603 24.6797C91.9719 24.9879 91.609 25.2282 91.1715 25.4006C90.7373 25.5696 90.2418 25.6541 89.685 25.6541ZM97.4693 25.6491C96.8528 25.6491 96.3026 25.4917 95.8187 25.1768C95.3381 24.8587 94.9603 24.4062 94.6852 23.8196C94.4134 23.2296 94.2775 22.522 94.2775 21.6967C94.2775 20.8714 94.4151 20.1655 94.6902 19.5788C94.9686 18.9922 95.3497 18.5431 95.8336 18.2315C96.3175 17.92 96.8661 17.7642 97.4792 17.7642C97.9532 17.7642 98.3343 17.8438 98.6227 18.0028C98.9144 18.1586 99.1397 18.3409 99.2988 18.5497C99.4612 18.7585 99.5872 18.9425 99.6767 19.1016H99.7662V15.3182H101.253V25.5H99.801V24.3118H99.6767C99.5872 24.4742 99.4579 24.6598 99.2889 24.8686C99.1232 25.0774 98.8945 25.2597 98.6028 25.4155C98.3111 25.5713 97.9333 25.6491 97.4693 25.6491ZM97.7974 24.3814C98.225 24.3814 98.5862 24.2687 98.8812 24.0433C99.1795 23.8146 99.4049 23.4981 99.5574 23.0938C99.7131 22.6894 99.791 22.2187 99.791 21.6818C99.791 21.1515 99.7148 20.6875 99.5623 20.2898C99.4099 19.892 99.1861 19.5821 98.8912 19.3601C98.5962 19.138 98.2316 19.027 97.7974 19.027C97.35 19.027 96.9771 19.143 96.6788 19.375C96.3805 19.607 96.1551 19.9235 96.0027 20.3246C95.8535 20.7256 95.7789 21.178 95.7789 21.6818C95.7789 22.1922 95.8552 22.6513 96.0076 23.0589C96.1601 23.4666 96.3855 23.7898 96.6838 24.0284C96.9854 24.2637 97.3566 24.3814 97.7974 24.3814ZM103.374 25.5V17.8636H104.861V25.5H103.374ZM104.125 16.6854C103.866 16.6854 103.644 16.5992 103.459 16.4268C103.277 16.2512 103.185 16.0424 103.185 15.8004C103.185 15.5552 103.277 15.3464 103.459 15.174C103.644 14.9983 103.866 14.9105 104.125 14.9105C104.384 14.9105 104.604 14.9983 104.786 15.174C104.972 15.3464 105.065 15.5552 105.065 15.8004C105.065 16.0424 104.972 16.2512 104.786 16.4268C104.604 16.5992 104.384 16.6854 104.125 16.6854ZM110.425 17.8636V19.0568H106.254V17.8636H110.425ZM107.373 16.0341H108.859V23.2578C108.859 23.5462 108.902 23.7633 108.988 23.9091C109.075 24.0516 109.186 24.1494 109.322 24.2024C109.461 24.2521 109.612 24.277 109.774 24.277C109.893 24.277 109.998 24.2687 110.087 24.2521C110.177 24.2356 110.246 24.2223 110.296 24.2124L110.564 25.4403C110.478 25.4735 110.356 25.5066 110.197 25.5398C110.037 25.5762 109.839 25.5961 109.6 25.5994C109.209 25.6061 108.844 25.5365 108.506 25.3906C108.168 25.2448 107.895 25.0194 107.686 24.7145C107.477 24.4096 107.373 24.0268 107.373 23.5661V16.0341ZM118.991 25.6541C118.252 25.6541 117.616 25.4867 117.082 25.152C116.552 24.8139 116.144 24.3482 115.859 23.755C115.574 23.1617 115.432 22.4822 115.432 21.7166C115.432 20.9411 115.577 20.2566 115.869 19.6634C116.161 19.0668 116.572 18.6011 117.102 18.2663C117.632 17.9316 118.257 17.7642 118.976 17.7642C119.556 17.7642 120.073 17.8719 120.528 18.0874C120.982 18.2995 121.348 18.5978 121.626 18.9822C121.908 19.3667 122.075 19.8158 122.128 20.3295H120.682C120.602 19.9716 120.42 19.6634 120.135 19.4048C119.853 19.1463 119.475 19.017 119.001 19.017C118.587 19.017 118.224 19.1264 117.912 19.3452C117.604 19.5606 117.364 19.8688 117.192 20.2699C117.019 20.6676 116.933 21.1383 116.933 21.6818C116.933 22.2386 117.018 22.7192 117.187 23.1236C117.356 23.5279 117.594 23.8411 117.903 24.0632C118.214 24.2853 118.58 24.3963 119.001 24.3963C119.283 24.3963 119.538 24.3449 119.767 24.2422C119.999 24.1361 120.193 23.9853 120.349 23.7898C120.508 23.5942 120.619 23.3589 120.682 23.0838H122.128C122.075 23.5777 121.915 24.0185 121.646 24.4062C121.378 24.794 121.018 25.099 120.567 25.321C120.12 25.5431 119.595 25.6541 118.991 25.6541ZM125.94 25.669C125.456 25.669 125.019 25.5795 124.628 25.4006C124.237 25.2183 123.927 24.9548 123.698 24.6101C123.473 24.2654 123.36 23.8428 123.36 23.3423C123.36 22.9115 123.443 22.5568 123.609 22.2784C123.774 22 123.998 21.7796 124.28 21.6172C124.562 21.4548 124.876 21.3321 125.224 21.2493C125.572 21.1664 125.927 21.1035 126.288 21.0604C126.746 21.0073 127.117 20.9643 127.402 20.9311C127.687 20.8946 127.894 20.8366 128.023 20.7571C128.153 20.6776 128.217 20.5483 128.217 20.3693V20.3345C128.217 19.9003 128.095 19.5639 127.849 19.3253C127.607 19.0866 127.246 18.9673 126.766 18.9673C126.265 18.9673 125.871 19.0784 125.582 19.3004C125.297 19.5192 125.1 19.7628 124.991 20.0312L123.594 19.7131C123.759 19.2491 124.001 18.8745 124.32 18.5895C124.641 18.3011 125.011 18.0923 125.428 17.9631C125.846 17.8305 126.285 17.7642 126.746 17.7642C127.051 17.7642 127.374 17.8007 127.715 17.8736C128.06 17.9432 128.381 18.0724 128.68 18.2614C128.981 18.4503 129.228 18.7204 129.42 19.0717C129.613 19.4197 129.709 19.8722 129.709 20.429V25.5H128.257V24.456H128.197C128.101 24.6482 127.957 24.8371 127.765 25.0227C127.573 25.2083 127.326 25.3625 127.024 25.4851C126.723 25.6077 126.361 25.669 125.94 25.669ZM126.263 24.4759C126.674 24.4759 127.026 24.3946 127.317 24.2322C127.612 24.0698 127.836 23.8577 127.989 23.5959C128.144 23.3307 128.222 23.0473 128.222 22.7457V21.7614C128.169 21.8144 128.067 21.8641 127.914 21.9105C127.765 21.9536 127.594 21.9917 127.402 22.0249C127.21 22.0547 127.022 22.0829 126.84 22.1094C126.658 22.1326 126.505 22.1525 126.383 22.169C126.094 22.2055 125.831 22.2668 125.592 22.353C125.357 22.4392 125.168 22.5634 125.026 22.7259C124.886 22.8849 124.817 23.0971 124.817 23.3622C124.817 23.7301 124.953 24.0085 125.224 24.1974C125.496 24.383 125.843 24.4759 126.263 24.4759ZM131.689 25.5V17.8636H133.126V19.0767H133.205C133.344 18.6657 133.59 18.3426 133.941 18.1072C134.296 17.8686 134.697 17.7493 135.144 17.7493C135.237 17.7493 135.346 17.7526 135.472 17.7592C135.601 17.7659 135.702 17.7741 135.775 17.7841V19.206C135.716 19.1894 135.61 19.1712 135.457 19.1513C135.305 19.1281 135.152 19.1165 135 19.1165C134.648 19.1165 134.335 19.1911 134.06 19.3402C133.788 19.486 133.573 19.6899 133.414 19.9517C133.255 20.2102 133.175 20.5052 133.175 20.8366V25.5H131.689ZM139.647 25.6491C139.031 25.6491 138.48 25.4917 137.996 25.1768C137.516 24.8587 137.138 24.4062 136.863 23.8196C136.591 23.2296 136.455 22.522 136.455 21.6967C136.455 20.8714 136.593 20.1655 136.868 19.5788C137.146 18.9922 137.527 18.5431 138.011 18.2315C138.495 17.92 139.044 17.7642 139.657 17.7642C140.131 17.7642 140.512 17.8438 140.8 18.0028C141.092 18.1586 141.317 18.3409 141.477 18.5497C141.639 18.7585 141.765 18.9425 141.854 19.1016H141.944V15.3182H143.43V25.5H141.979V24.3118H141.854C141.765 24.4742 141.636 24.6598 141.467 24.8686C141.301 25.0774 141.072 25.2597 140.781 25.4155C140.489 25.5713 140.111 25.6491 139.647 25.6491ZM139.975 24.3814C140.403 24.3814 140.764 24.2687 141.059 24.0433C141.357 23.8146 141.583 23.4981 141.735 23.0938C141.891 22.6894 141.969 22.2187 141.969 21.6818C141.969 21.1515 141.893 20.6875 141.74 20.2898C141.588 19.892 141.364 19.5821 141.069 19.3601C140.774 19.138 140.409 19.027 139.975 19.027C139.528 19.027 139.155 19.143 138.857 19.375C138.558 19.607 138.333 19.9235 138.18 20.3246C138.031 20.7256 137.957 21.178 137.957 21.6818C137.957 22.1922 138.033 22.6513 138.185 23.0589C138.338 23.4666 138.563 23.7898 138.862 24.0284C139.163 24.2637 139.534 24.3814 139.975 24.3814Z" fill="#CAC6DD"/>
<path d="M75.5341 36.8636V48.5H73.7727V38.625H73.7045L70.9205 40.4432V38.7614L73.8239 36.8636H75.5341ZM78.1818 48.5V47.2273L82.1193 43.1477C82.5398 42.7045 82.8864 42.3163 83.1591 41.983C83.4356 41.6458 83.642 41.3258 83.7784 41.0227C83.9148 40.7197 83.983 40.3977 83.983 40.0568C83.983 39.6705 83.892 39.3371 83.7102 39.0568C83.5284 38.7727 83.2803 38.5549 82.9659 38.4034C82.6515 38.2481 82.2973 38.1705 81.9034 38.1705C81.4867 38.1705 81.1231 38.2557 80.8125 38.4261C80.5019 38.5966 80.2633 38.8371 80.0966 39.1477C79.9299 39.4583 79.8466 39.822 79.8466 40.2386H78.1705C78.1705 39.5303 78.3333 38.911 78.6591 38.3807C78.9848 37.8504 79.4318 37.4394 80 37.1477C80.5682 36.8523 81.214 36.7045 81.9375 36.7045C82.6686 36.7045 83.3125 36.8504 83.8693 37.142C84.4299 37.4299 84.8674 37.8239 85.1818 38.3239C85.4962 38.8201 85.6534 39.3807 85.6534 40.0057C85.6534 40.4375 85.572 40.8598 85.4091 41.2727C85.25 41.6856 84.9716 42.1458 84.5739 42.6534C84.1761 43.1572 83.6231 43.7689 82.9148 44.4886L80.6023 46.9091V46.9943H85.8409V48.5H78.1818ZM91.5455 48.6591C90.7652 48.6591 90.0682 48.5246 89.4545 48.2557C88.8447 47.9867 88.3617 47.6136 88.0057 47.1364C87.6534 46.6553 87.464 46.0985 87.4375 45.4659H89.2216C89.2443 45.8106 89.3598 46.1098 89.5682 46.3636C89.7803 46.6136 90.0568 46.8068 90.3977 46.9432C90.7386 47.0795 91.1174 47.1477 91.5341 47.1477C91.9924 47.1477 92.3977 47.0682 92.75 46.9091C93.1061 46.75 93.3845 46.5284 93.5852 46.2443C93.786 45.9564 93.8864 45.625 93.8864 45.25C93.8864 44.8598 93.786 44.517 93.5852 44.2216C93.3883 43.9223 93.0985 43.6875 92.7159 43.517C92.3371 43.3466 91.8788 43.2614 91.3409 43.2614H90.358V41.8295H91.3409C91.7727 41.8295 92.1515 41.7519 92.4773 41.5966C92.8068 41.4413 93.0644 41.2254 93.25 40.9489C93.4356 40.6686 93.5284 40.3409 93.5284 39.9659C93.5284 39.6061 93.447 39.2936 93.2841 39.0284C93.125 38.7595 92.8977 38.5492 92.6023 38.3977C92.3106 38.2462 91.9659 38.1705 91.5682 38.1705C91.1894 38.1705 90.8352 38.2405 90.5057 38.3807C90.1799 38.517 89.9148 38.714 89.7102 38.9716C89.5057 39.2254 89.3958 39.5303 89.3807 39.8864H87.6818C87.7008 39.2576 87.8864 38.7045 88.2386 38.2273C88.5947 37.75 89.0644 37.3769 89.6477 37.108C90.2311 36.839 90.8788 36.7045 91.5909 36.7045C92.3371 36.7045 92.9811 36.8504 93.5227 37.142C94.0682 37.4299 94.4886 37.8144 94.7841 38.2955C95.0833 38.7765 95.2311 39.303 95.2273 39.875C95.2311 40.5265 95.0492 41.0795 94.6818 41.5341C94.3182 41.9886 93.8333 42.2936 93.2273 42.4489V42.5398C94 42.6572 94.5985 42.964 95.0227 43.4602C95.4508 43.9564 95.6629 44.572 95.6591 45.3068C95.6629 45.947 95.4848 46.5208 95.125 47.0284C94.7689 47.536 94.2822 47.9356 93.6648 48.2273C93.0473 48.5152 92.3409 48.6591 91.5455 48.6591ZM100.797 46.2273V44.8068L105.825 36.8636H106.945V38.9545H106.234L102.638 44.6477V44.7386H109.53V46.2273H100.797ZM106.314 48.5V45.7955L106.325 45.1477V36.8636H107.99V48.5H106.314ZM114.851 48.6591C114.139 48.6591 113.499 48.5227 112.93 48.25C112.366 47.9735 111.915 47.5947 111.578 47.1136C111.241 46.6326 111.061 46.0833 111.038 45.4659H112.743C112.785 45.9659 113.006 46.3769 113.408 46.6989C113.809 47.0208 114.29 47.1818 114.851 47.1818C115.298 47.1818 115.694 47.0795 116.038 46.875C116.387 46.6667 116.66 46.3807 116.857 46.017C117.057 45.6534 117.158 45.2386 117.158 44.7727C117.158 44.2992 117.055 43.8769 116.851 43.5057C116.646 43.1345 116.364 42.8428 116.004 42.6307C115.648 42.4186 115.239 42.3106 114.777 42.3068C114.425 42.3068 114.071 42.3674 113.714 42.4886C113.358 42.6098 113.071 42.7689 112.851 42.9659L111.243 42.7273L111.896 36.8636H118.294V38.3693H113.357L112.987 41.625H113.055C113.283 41.4053 113.584 41.2216 113.959 41.0739C114.338 40.9261 114.743 40.8523 115.175 40.8523C115.883 40.8523 116.514 41.0208 117.067 41.358C117.624 41.6951 118.061 42.1553 118.379 42.7386C118.701 43.3182 118.86 43.9848 118.857 44.7386C118.86 45.4924 118.69 46.1648 118.345 46.7557C118.004 47.3466 117.531 47.8125 116.925 48.1534C116.322 48.4905 115.631 48.6591 114.851 48.6591ZM124.494 48.6591C123.975 48.6515 123.464 48.5568 122.96 48.375C122.46 48.1932 122.006 47.8902 121.597 47.4659C121.188 47.0417 120.86 46.4716 120.614 45.7557C120.371 45.0398 120.25 44.1458 120.25 43.0739C120.25 42.0587 120.35 41.1572 120.551 40.3693C120.756 39.5814 121.049 38.9167 121.432 38.375C121.814 37.8295 122.277 37.4148 122.818 37.1307C123.36 36.8466 123.968 36.7045 124.642 36.7045C125.335 36.7045 125.951 36.8409 126.489 37.1136C127.027 37.3864 127.462 37.7633 127.795 38.2443C128.133 38.7254 128.347 39.2727 128.438 39.8864H126.705C126.587 39.4015 126.354 39.0057 126.006 38.6989C125.657 38.392 125.203 38.2386 124.642 38.2386C123.79 38.2386 123.125 38.6098 122.648 39.3523C122.174 40.0947 121.936 41.1269 121.932 42.4489H122.017C122.218 42.1193 122.464 41.839 122.756 41.608C123.051 41.3731 123.381 41.1932 123.744 41.0682C124.112 40.9394 124.498 40.875 124.903 40.875C125.578 40.875 126.188 41.0398 126.733 41.3693C127.282 41.6951 127.72 42.1458 128.045 42.7216C128.371 43.2973 128.534 43.9564 128.534 44.6989C128.534 45.4413 128.366 46.1136 128.028 46.7159C127.695 47.3182 127.225 47.7955 126.619 48.1477C126.013 48.4962 125.305 48.6667 124.494 48.6591ZM124.489 47.1818C124.936 47.1818 125.335 47.072 125.688 46.8523C126.04 46.6326 126.318 46.3371 126.523 45.9659C126.727 45.5947 126.83 45.1799 126.83 44.7216C126.83 44.2746 126.729 43.8674 126.528 43.5C126.331 43.1326 126.059 42.8409 125.71 42.625C125.366 42.4091 124.972 42.3011 124.528 42.3011C124.191 42.3011 123.879 42.3655 123.591 42.4943C123.307 42.6231 123.057 42.8011 122.841 43.0284C122.625 43.2557 122.455 43.517 122.33 43.8125C122.208 44.1042 122.148 44.4129 122.148 44.7386C122.148 45.1742 122.248 45.5777 122.449 45.9489C122.653 46.3201 122.932 46.6193 123.284 46.8466C123.64 47.0701 124.042 47.1818 124.489 47.1818ZM134.23 48.5L139.31 38.4545V38.3693H133.435V36.8636H141.128V38.4205L136.065 48.5H134.23ZM146.301 48.6591C145.487 48.6591 144.767 48.5189 144.142 48.2386C143.521 47.9583 143.034 47.572 142.682 47.0795C142.33 46.5871 142.155 46.0265 142.159 45.3977C142.155 44.9053 142.256 44.4527 142.46 44.0398C142.669 43.6231 142.951 43.2765 143.307 43C143.663 42.7197 144.061 42.5417 144.5 42.4659V42.3977C143.92 42.2576 143.456 41.947 143.108 41.4659C142.759 40.9848 142.587 40.4318 142.591 39.8068C142.587 39.2121 142.744 38.6818 143.062 38.2159C143.384 37.7462 143.826 37.3769 144.386 37.108C144.947 36.839 145.585 36.7045 146.301 36.7045C147.009 36.7045 147.642 36.8409 148.199 37.1136C148.759 37.3826 149.201 37.7519 149.523 38.2216C149.845 38.6875 150.008 39.2159 150.011 39.8068C150.008 40.4318 149.83 40.9848 149.477 41.4659C149.125 41.947 148.667 42.2576 148.102 42.3977V42.4659C148.538 42.5417 148.93 42.7197 149.278 43C149.631 43.2765 149.911 43.6231 150.119 44.0398C150.331 44.4527 150.439 44.9053 150.443 45.3977C150.439 46.0265 150.261 46.5871 149.909 47.0795C149.557 47.572 149.068 47.9583 148.443 48.2386C147.822 48.5189 147.108 48.6591 146.301 48.6591ZM146.301 47.2216C146.782 47.2216 147.199 47.142 147.551 46.983C147.903 46.8201 148.176 46.5947 148.369 46.3068C148.563 46.0152 148.661 45.6742 148.665 45.2841C148.661 44.8788 148.555 44.5208 148.347 44.2102C148.142 43.8996 147.864 43.6553 147.511 43.4773C147.159 43.2992 146.756 43.2102 146.301 43.2102C145.843 43.2102 145.436 43.2992 145.08 43.4773C144.723 43.6553 144.443 43.8996 144.239 44.2102C144.034 44.5208 143.934 44.8788 143.938 45.2841C143.934 45.6742 144.027 46.0152 144.216 46.3068C144.409 46.5947 144.684 46.8201 145.04 46.983C145.396 47.142 145.816 47.2216 146.301 47.2216ZM146.301 41.8068C146.688 41.8068 147.03 41.7292 147.33 41.5739C147.629 41.4186 147.864 41.2027 148.034 40.9261C148.208 40.6496 148.297 40.3258 148.301 39.9545C148.297 39.5909 148.21 39.2727 148.04 39C147.873 38.7273 147.64 38.517 147.341 38.3693C147.042 38.2178 146.695 38.142 146.301 38.142C145.9 38.142 145.547 38.2178 145.244 38.3693C144.945 38.517 144.712 38.7273 144.545 39C144.379 39.2727 144.297 39.5909 144.301 39.9545C144.297 40.3258 144.381 40.6496 144.551 40.9261C144.722 41.2027 144.956 41.4186 145.256 41.5739C145.559 41.7292 145.907 41.8068 146.301 41.8068ZM155.848 36.7045C156.367 36.7083 156.878 36.803 157.382 36.9886C157.886 37.1742 158.34 37.4773 158.746 37.8977C159.155 38.3182 159.481 38.8864 159.723 39.6023C159.969 40.3144 160.094 41.2008 160.098 42.2614C160.098 43.2803 159.996 44.1875 159.791 44.983C159.587 45.7746 159.293 46.4432 158.911 46.9886C158.532 47.5341 158.071 47.9489 157.53 48.233C156.988 48.517 156.378 48.6591 155.7 48.6591C155.007 48.6591 154.392 48.5227 153.854 48.25C153.316 47.9773 152.878 47.6004 152.541 47.1193C152.204 46.6345 151.994 46.0777 151.911 45.4489H153.643C153.757 45.9489 153.988 46.3542 154.337 46.6648C154.689 46.9716 155.143 47.125 155.7 47.125C156.553 47.125 157.217 46.7538 157.695 46.0114C158.172 45.2652 158.412 44.2235 158.416 42.8864H158.325C158.128 43.2121 157.882 43.4924 157.587 43.7273C157.295 43.9621 156.967 44.1439 156.604 44.2727C156.24 44.4015 155.852 44.4659 155.439 44.4659C154.768 44.4659 154.159 44.3011 153.609 43.9716C153.06 43.642 152.623 43.1894 152.297 42.6136C151.971 42.0379 151.808 41.3807 151.808 40.642C151.808 39.9072 151.975 39.2405 152.308 38.642C152.645 38.0436 153.115 37.5701 153.717 37.2216C154.323 36.8693 155.034 36.697 155.848 36.7045ZM155.854 38.1818C155.411 38.1818 155.011 38.2917 154.655 38.5114C154.303 38.7273 154.024 39.0208 153.82 39.392C153.615 39.7595 153.513 40.1686 153.513 40.6193C153.513 41.0701 153.611 41.4792 153.808 41.8466C154.009 42.2102 154.282 42.5 154.626 42.7159C154.975 42.928 155.373 43.0341 155.82 43.0341C156.153 43.0341 156.464 42.9697 156.751 42.8409C157.039 42.7121 157.291 42.5341 157.507 42.3068C157.723 42.0758 157.892 41.8144 158.013 41.5227C158.134 41.2311 158.195 40.9242 158.195 40.6023C158.195 40.1742 158.092 39.7765 157.888 39.4091C157.687 39.0417 157.411 38.7462 157.058 38.5227C156.706 38.2955 156.304 38.1818 155.854 38.1818ZM169.8 36.8636V48.5H168.038V38.625H167.97L165.186 40.4432V38.7614L168.089 36.8636H169.8ZM172.447 48.5V47.2273L176.385 43.1477C176.805 42.7045 177.152 42.3163 177.425 41.983C177.701 41.6458 177.908 41.3258 178.044 41.0227C178.18 40.7197 178.249 40.3977 178.249 40.0568C178.249 39.6705 178.158 39.3371 177.976 39.0568C177.794 38.7727 177.546 38.5549 177.232 38.4034C176.917 38.2481 176.563 38.1705 176.169 38.1705C175.752 38.1705 175.389 38.2557 175.078 38.4261C174.768 38.5966 174.529 38.8371 174.362 39.1477C174.196 39.4583 174.112 39.822 174.112 40.2386H172.436C172.436 39.5303 172.599 38.911 172.925 38.3807C173.25 37.8504 173.697 37.4394 174.266 37.1477C174.834 36.8523 175.48 36.7045 176.203 36.7045C176.934 36.7045 177.578 36.8504 178.135 37.142C178.696 37.4299 179.133 37.8239 179.447 38.3239C179.762 38.8201 179.919 39.3807 179.919 40.0057C179.919 40.4375 179.838 40.8598 179.675 41.2727C179.516 41.6856 179.237 42.1458 178.839 42.6534C178.442 43.1572 177.889 43.7689 177.18 44.4886L174.868 46.9091V46.9943H180.107V48.5H172.447ZM181.266 46.2273V44.8068L186.294 36.8636H187.413V38.9545H186.703L183.107 44.6477V44.7386H189.999V46.2273H181.266ZM186.783 48.5V45.7955L186.794 45.1477V36.8636H188.459V48.5H186.783ZM195.53 48.6591C194.75 48.6591 194.053 48.5246 193.439 48.2557C192.829 47.9867 192.346 47.6136 191.99 47.1364C191.638 46.6553 191.448 46.0985 191.422 45.4659H193.206C193.229 45.8106 193.344 46.1098 193.553 46.3636C193.765 46.6136 194.041 46.8068 194.382 46.9432C194.723 47.0795 195.102 47.1477 195.518 47.1477C195.977 47.1477 196.382 47.0682 196.734 46.9091C197.09 46.75 197.369 46.5284 197.57 46.2443C197.77 45.9564 197.871 45.625 197.871 45.25C197.871 44.8598 197.77 44.517 197.57 44.2216C197.373 43.9223 197.083 43.6875 196.7 43.517C196.321 43.3466 195.863 43.2614 195.325 43.2614H194.342V41.8295H195.325C195.757 41.8295 196.136 41.7519 196.462 41.5966C196.791 41.4413 197.049 41.2254 197.234 40.9489C197.42 40.6686 197.513 40.3409 197.513 39.9659C197.513 39.6061 197.431 39.2936 197.268 39.0284C197.109 38.7595 196.882 38.5492 196.587 38.3977C196.295 38.2462 195.95 38.1705 195.553 38.1705C195.174 38.1705 194.82 38.2405 194.49 38.3807C194.164 38.517 193.899 38.714 193.695 38.9716C193.49 39.2254 193.38 39.5303 193.365 39.8864H191.666C191.685 39.2576 191.871 38.7045 192.223 38.2273C192.579 37.75 193.049 37.3769 193.632 37.108C194.215 36.839 194.863 36.7045 195.575 36.7045C196.321 36.7045 196.965 36.8504 197.507 37.142C198.053 37.4299 198.473 37.8144 198.768 38.2955C199.068 38.7765 199.215 39.303 199.212 39.875C199.215 40.5265 199.034 41.0795 198.666 41.5341C198.303 41.9886 197.818 42.2936 197.212 42.4489V42.5398C197.984 42.6572 198.583 42.964 199.007 43.4602C199.435 43.9564 199.647 44.572 199.643 45.3068C199.647 45.947 199.469 46.5208 199.109 47.0284C198.753 47.536 198.267 47.9356 197.649 48.2273C197.032 48.5152 196.325 48.6591 195.53 48.6591Z" fill="#CAC6DD"/>
<defs>
<filter id="filter1_d_1_292" x="9" y="9" width="46" height="46" filterUnits="userSpaceOnUse" color-interpolation-filters="sRGB">
<feFlood flood-opacity="0" result="BackgroundImageFix"/>
<feColorMatrix in="SourceAlpha" type="matrix" values="0 0 0 0 0 0 0 0 0 0 0 0 0 0 0 0 0 0 127 0" result="hardAlpha"/>
<feMorphology radius="1" operator="dilate" in="SourceAlpha" result="effect1_dropShadow_1_292"/>
<feOffset/>
<feComposite in2="hardAlpha" operator="out"/>
<feColorMatrix type="matrix" values="0 0 0 0 0.176471 0 0 0 0 0.180392 0 0 0 0 0.282353 0 0 0 1 0"/>
<feBlend mode="normal" in2="BackgroundImageFix" result="effect1_dropShadow_1_292"/>
<feBlend mode="normal" in="SourceGraphic" in2="effect1_dropShadow_1_292" result="shape"/>
</filter>
<linearGradient id="paint0_linear_1_292" x1="105.5" y1="-2.61303e-06" x2="118.813" y2="47.6239" gradientUnits="userSpaceOnUse">
<stop stop-color="#1B1C36"/>
<stop offset="1" stop-color="#70717A"/>
</linearGradient>
<linearGradient id="paint1_linear_1_292" x1="211" y1="60.0976" x2="22.8113" y2="-33.2801" gradientUnits="userSpaceOnUse">
<stop stop-color="white" stop-opacity="0.07"/>
<stop offset="1" stop-color="white" stop-opacity="0.15"/>
</linearGradient>
</defs>
</svg>
