<svg width="212" height="64" viewBox="0 0 212 64" fill="none" xmlns="http://www.w3.org/2000/svg">
<rect x="0.5" y="0.5" width="211" height="63" rx="15.5" fill="url(#paint0_linear_1_283)" fill-opacity="0.16"/>
<rect x="0.5" y="0.5" width="211" height="63" rx="15.5" stroke="url(#paint1_linear_1_283)"/>
<g filter="url(#filter1_d_1_283)">
<rect x="10" y="10" width="44" height="44" rx="12" fill="white" fill-opacity="0.07" shape-rendering="crispEdges"/>
<path opacity="0.4" d="M26.1674 19.8777C27.5762 19.1478 29.1916 18.4766 31.1786 18.4766C33.1656 18.4766 34.7815 19.1478 36.1912 19.8777C36.617 20.0982 37.0126 20.3163 37.3908 20.5248C38.3162 21.035 39.1365 21.4872 40.037 21.7744C40.5655 21.9429 41.0338 22.0922 41.3657 22.2223C41.6783 22.3447 42.0497 22.5125 42.3132 22.8053C42.5501 23.0684 42.6717 23.3637 42.7523 23.6462C42.8255 23.9027 42.8881 24.2499 42.9481 24.583C44.4115 32.6967 41.2155 40.3838 33.4035 43.375C32.6355 43.669 32.07 43.8857 31.1825 43.8857C30.2948 43.8857 29.7293 43.669 28.9614 43.375C21.149 40.3839 17.9499 32.697 19.4129 24.5831C19.4729 24.25 19.5355 23.9029 19.6086 23.6464C19.6893 23.3639 19.8109 23.0686 20.0476 22.8056C20.3111 22.5127 20.6825 22.3449 20.995 22.2225C21.327 22.0923 21.7952 21.943 22.3238 21.7743C23.2239 21.4871 24.0434 21.035 24.9681 20.5249C25.3461 20.3164 25.7416 20.0982 26.1674 19.8777Z" fill="#88E5BE"/>
<path fill-rule="evenodd" clip-rule="evenodd" d="M31.1825 37.0916C34.446 37.0916 37.0916 34.446 37.0916 31.1825C37.0916 27.919 34.446 25.2734 31.1825 25.2734C27.919 25.2734 25.2734 27.919 25.2734 31.1825C25.2734 34.446 27.919 37.0916 31.1825 37.0916ZM33.8421 30.2456C34.3035 30.0821 34.5452 29.5756 34.3817 29.1141C34.2183 28.6527 33.7117 28.4111 33.2502 28.5745C32.6805 28.7763 32.1515 29.1543 31.7038 29.5469C31.2471 29.9475 30.8236 30.4093 30.4672 30.8366C30.2944 31.0437 30.1348 31.2456 29.9922 31.433C29.888 31.3355 29.7835 31.253 29.6798 31.1839C29.6586 31.1698 29.6374 31.155 29.6158 31.1399C29.4466 31.022 29.253 30.8873 28.8189 30.8873C28.3294 30.8873 27.9325 31.2842 27.9325 31.7737C27.9325 32.2165 28.2573 32.5836 28.6817 32.6495C28.6859 32.652 28.6909 32.6551 28.6965 32.6589C28.7624 32.7028 28.9651 32.8661 29.2079 33.3519C29.3508 33.6376 29.6364 33.8244 29.9553 33.8407C30.2743 33.857 30.5777 33.7 30.749 33.4305C30.9414 33.1579 31.5087 32.3554 31.8284 31.9721C32.1497 31.5869 32.5084 31.1993 32.8728 30.8797C33.2463 30.5521 33.5776 30.3392 33.8421 30.2456Z" fill="#88E5BE"/>
</g>
<path d="M79.9631 20.4091C79.9631 21.4962 79.7642 22.4309 79.3665 23.2131C78.9688 23.992 78.4235 24.5919 77.7308 25.0128C77.0414 25.4304 76.2576 25.6392 75.3793 25.6392C74.4976 25.6392 73.7105 25.4304 73.0178 25.0128C72.3284 24.5919 71.7848 23.9903 71.3871 23.2081C70.9893 22.4259 70.7905 21.4929 70.7905 20.4091C70.7905 19.322 70.9893 18.389 71.3871 17.6101C71.7848 16.8279 72.3284 16.228 73.0178 15.8104C73.7105 15.3894 74.4976 15.179 75.3793 15.179C76.2576 15.179 77.0414 15.3894 77.7308 15.8104C78.4235 16.228 78.9688 16.8279 79.3665 17.6101C79.7642 18.389 79.9631 19.322 79.9631 20.4091ZM78.4418 20.4091C78.4418 19.5805 78.3075 18.8828 78.0391 18.3161C77.7739 17.746 77.4093 17.3151 76.9453 17.0234C76.4846 16.7285 75.9626 16.581 75.3793 16.581C74.7926 16.581 74.2689 16.7285 73.8082 17.0234C73.3475 17.3151 72.983 17.746 72.7145 18.3161C72.4493 18.8828 72.3168 19.5805 72.3168 20.4091C72.3168 21.2377 72.4493 21.937 72.7145 22.5071C72.983 23.0739 73.3475 23.5047 73.8082 23.7997C74.2689 24.0914 74.7926 24.2372 75.3793 24.2372C75.9626 24.2372 76.4846 24.0914 76.9453 23.7997C77.4093 23.5047 77.7739 23.0739 78.0391 22.5071C78.3075 21.937 78.4418 21.2377 78.4418 20.4091ZM83.2456 20.9659V25.5H81.7591V17.8636H83.1859V19.1065H83.2804C83.456 18.7022 83.7311 18.3774 84.1056 18.1321C84.4835 17.8868 84.9591 17.7642 85.5325 17.7642C86.0529 17.7642 86.5086 17.8736 86.8997 18.0923C87.2908 18.3078 87.594 18.6293 87.8095 19.0568C88.0249 19.4844 88.1326 20.013 88.1326 20.6428V25.5H86.6461V20.8217C86.6461 20.2682 86.502 19.8357 86.2136 19.5241C85.9252 19.2093 85.5292 19.0518 85.0254 19.0518C84.6807 19.0518 84.3741 19.1264 84.1056 19.2756C83.8405 19.4247 83.63 19.6435 83.4743 19.9318C83.3218 20.2169 83.2456 20.5616 83.2456 20.9659ZM93.4174 25.6541C92.6651 25.6541 92.0171 25.4934 91.4735 25.1719C90.9333 24.8471 90.5157 24.3913 90.2207 23.8047C89.929 23.2147 89.7832 22.5237 89.7832 21.7315C89.7832 20.9493 89.929 20.2599 90.2207 19.6634C90.5157 19.0668 90.9267 18.6011 91.4537 18.2663C91.984 17.9316 92.6038 17.7642 93.313 17.7642C93.7439 17.7642 94.1615 17.8355 94.5659 17.978C94.9702 18.1205 95.3332 18.3442 95.6547 18.6491C95.9761 18.9541 96.2297 19.3501 96.4153 19.8374C96.6009 20.3213 96.6937 20.9096 96.6937 21.6023V22.1293H90.6234V21.0156H95.237C95.237 20.6245 95.1575 20.2782 94.9984 19.9766C94.8393 19.6716 94.6156 19.4313 94.3272 19.2557C94.0422 19.08 93.7074 18.9922 93.323 18.9922C92.9054 18.9922 92.5408 19.0949 92.2292 19.3004C91.921 19.5026 91.6824 19.7678 91.5133 20.0959C91.3476 20.4207 91.2647 20.7737 91.2647 21.1548V22.0249C91.2647 22.5353 91.3542 22.9695 91.5332 23.3274C91.7155 23.6854 91.969 23.9588 92.2939 24.1477C92.6187 24.3333 92.9982 24.4261 93.4324 24.4261C93.7141 24.4261 93.9709 24.3864 94.2029 24.3068C94.435 24.224 94.6355 24.1013 94.8045 23.9389C94.9735 23.7765 95.1028 23.576 95.1923 23.3374L96.5993 23.5909C96.4866 24.0052 96.2844 24.3681 95.9927 24.6797C95.7044 24.9879 95.3414 25.2282 94.9039 25.4006C94.4698 25.5696 93.9743 25.6541 93.4174 25.6541ZM102.842 20.5533V21.8409H98.3281V20.5533H102.842ZM108.388 17.8636V19.0568H104.217V17.8636H108.388ZM105.336 16.0341H106.822V23.2578C106.822 23.5462 106.865 23.7633 106.951 23.9091C107.038 24.0516 107.149 24.1494 107.284 24.2024C107.424 24.2521 107.574 24.277 107.737 24.277C107.856 24.277 107.961 24.2687 108.05 24.2521C108.14 24.2356 108.209 24.2223 108.259 24.2124L108.527 25.4403C108.441 25.4735 108.319 25.5066 108.159 25.5398C108 25.5762 107.801 25.5961 107.563 25.5994C107.172 25.6061 106.807 25.5365 106.469 25.3906C106.131 25.2448 105.858 25.0194 105.649 24.7145C105.44 24.4096 105.336 24.0268 105.336 23.5661V16.0341ZM110.032 25.5V17.8636H111.519V25.5H110.032ZM110.783 16.6854C110.525 16.6854 110.303 16.5992 110.117 16.4268C109.935 16.2512 109.844 16.0424 109.844 15.8004C109.844 15.5552 109.935 15.3464 110.117 15.174C110.303 14.9983 110.525 14.9105 110.783 14.9105C111.042 14.9105 111.262 14.9983 111.444 15.174C111.63 15.3464 111.723 15.5552 111.723 15.8004C111.723 16.0424 111.63 16.2512 111.444 16.4268C111.262 16.5992 111.042 16.6854 110.783 16.6854ZM113.519 25.5V17.8636H114.946V19.1065H115.04C115.199 18.6856 115.459 18.3575 115.821 18.1222C116.182 17.8835 116.614 17.7642 117.118 17.7642C117.629 17.7642 118.056 17.8835 118.401 18.1222C118.749 18.3608 119.006 18.6889 119.172 19.1065H119.251C119.433 18.6989 119.723 18.3741 120.121 18.1321C120.519 17.8868 120.993 17.7642 121.543 17.7642C122.236 17.7642 122.801 17.9813 123.238 18.4155C123.679 18.8497 123.9 19.5043 123.9 20.3793V25.5H122.413V20.5185C122.413 20.0014 122.272 19.6269 121.99 19.3949C121.709 19.1629 121.372 19.0469 120.981 19.0469C120.497 19.0469 120.121 19.196 119.853 19.4943C119.584 19.7893 119.45 20.1688 119.45 20.6328V25.5H117.968V20.424C117.968 20.0097 117.839 19.6766 117.581 19.4247C117.322 19.1728 116.986 19.0469 116.571 19.0469C116.29 19.0469 116.029 19.1214 115.791 19.2706C115.556 19.4164 115.365 19.6203 115.219 19.8821C115.077 20.1439 115.005 20.4472 115.005 20.7919V25.5H113.519ZM129.183 25.6541C128.431 25.6541 127.783 25.4934 127.239 25.1719C126.699 24.8471 126.281 24.3913 125.986 23.8047C125.695 23.2147 125.549 22.5237 125.549 21.7315C125.549 20.9493 125.695 20.2599 125.986 19.6634C126.281 19.0668 126.692 18.6011 127.219 18.2663C127.75 17.9316 128.369 17.7642 129.079 17.7642C129.51 17.7642 129.927 17.8355 130.331 17.978C130.736 18.1205 131.099 18.3442 131.42 18.6491C131.742 18.9541 131.995 19.3501 132.181 19.8374C132.367 20.3213 132.459 20.9096 132.459 21.6023V22.1293H126.389V21.0156H131.003C131.003 20.6245 130.923 20.2782 130.764 19.9766C130.605 19.6716 130.381 19.4313 130.093 19.2557C129.808 19.08 129.473 18.9922 129.089 18.9922C128.671 18.9922 128.306 19.0949 127.995 19.3004C127.687 19.5026 127.448 19.7678 127.279 20.0959C127.113 20.4207 127.03 20.7737 127.03 21.1548V22.0249C127.03 22.5353 127.12 22.9695 127.299 23.3274C127.481 23.6854 127.735 23.9588 128.059 24.1477C128.384 24.3333 128.764 24.4261 129.198 24.4261C129.48 24.4261 129.737 24.3864 129.969 24.3068C130.201 24.224 130.401 24.1013 130.57 23.9389C130.739 23.7765 130.868 23.576 130.958 23.3374L132.365 23.5909C132.252 24.0052 132.05 24.3681 131.758 24.6797C131.47 24.9879 131.107 25.2282 130.67 25.4006C130.235 25.5696 129.74 25.6541 129.183 25.6541ZM137.814 28.3636V17.8636H139.265V19.1016H139.39C139.476 18.9425 139.6 18.7585 139.763 18.5497C139.925 18.3409 140.15 18.1586 140.439 18.0028C140.727 17.8438 141.108 17.7642 141.582 17.7642C142.199 17.7642 142.749 17.92 143.233 18.2315C143.717 18.5431 144.096 18.9922 144.371 19.5788C144.65 20.1655 144.789 20.8714 144.789 21.6967C144.789 22.522 144.651 23.2296 144.376 23.8196C144.101 24.4062 143.723 24.8587 143.243 25.1768C142.762 25.4917 142.214 25.6491 141.597 25.6491C141.133 25.6491 140.754 25.5713 140.459 25.4155C140.167 25.2597 139.938 25.0774 139.773 24.8686C139.607 24.6598 139.479 24.4742 139.39 24.3118H139.3V28.3636H137.814ZM139.27 21.6818C139.27 22.2187 139.348 22.6894 139.504 23.0938C139.66 23.4981 139.885 23.8146 140.18 24.0433C140.475 24.2687 140.836 24.3814 141.264 24.3814C141.708 24.3814 142.079 24.2637 142.378 24.0284C142.676 23.7898 142.901 23.4666 143.054 23.0589C143.21 22.6513 143.287 22.1922 143.287 21.6818C143.287 21.178 143.211 20.7256 143.059 20.3246C142.91 19.9235 142.684 19.607 142.383 19.375C142.084 19.143 141.711 19.027 141.264 19.027C140.833 19.027 140.469 19.138 140.17 19.3601C139.875 19.5821 139.652 19.892 139.499 20.2898C139.347 20.6875 139.27 21.1515 139.27 21.6818ZM148.677 25.669C148.193 25.669 147.755 25.5795 147.364 25.4006C146.973 25.2183 146.663 24.9548 146.434 24.6101C146.209 24.2654 146.096 23.8428 146.096 23.3423C146.096 22.9115 146.179 22.5568 146.345 22.2784C146.511 22 146.734 21.7796 147.016 21.6172C147.298 21.4548 147.613 21.3321 147.961 21.2493C148.309 21.1664 148.663 21.1035 149.025 21.0604C149.482 21.0073 149.853 20.9643 150.138 20.9311C150.423 20.8946 150.631 20.8366 150.76 20.7571C150.889 20.6776 150.954 20.5483 150.954 20.3693V20.3345C150.954 19.9003 150.831 19.5639 150.586 19.3253C150.344 19.0866 149.983 18.9673 149.502 18.9673C149.001 18.9673 148.607 19.0784 148.319 19.3004C148.034 19.5192 147.836 19.7628 147.727 20.0312L146.33 19.7131C146.496 19.2491 146.738 18.8745 147.056 18.5895C147.377 18.3011 147.747 18.0923 148.165 17.9631C148.582 17.8305 149.021 17.7642 149.482 17.7642C149.787 17.7642 150.11 17.8007 150.452 17.8736C150.796 17.9432 151.118 18.0724 151.416 18.2614C151.718 18.4503 151.965 18.7204 152.157 19.0717C152.349 19.4197 152.445 19.8722 152.445 20.429V25.5H150.993V24.456H150.934C150.838 24.6482 150.693 24.8371 150.501 25.0227C150.309 25.2083 150.062 25.3625 149.76 25.4851C149.459 25.6077 149.098 25.669 148.677 25.669ZM149 24.4759C149.411 24.4759 149.762 24.3946 150.054 24.2322C150.349 24.0698 150.573 23.8577 150.725 23.5959C150.881 23.3307 150.959 23.0473 150.959 22.7457V21.7614C150.906 21.8144 150.803 21.8641 150.65 21.9105C150.501 21.9536 150.331 21.9917 150.138 22.0249C149.946 22.0547 149.759 22.0829 149.577 22.1094C149.394 22.1326 149.242 22.1525 149.119 22.169C148.831 22.2055 148.567 22.2668 148.329 22.353C148.093 22.4392 147.904 22.5634 147.762 22.7259C147.623 22.8849 147.553 23.0971 147.553 23.3622C147.553 23.7301 147.689 24.0085 147.961 24.1974C148.233 24.383 148.579 24.4759 149 24.4759ZM160.147 19.728L158.8 19.9666C158.744 19.7943 158.654 19.6302 158.532 19.4744C158.412 19.3187 158.25 19.1911 158.044 19.0916C157.839 18.9922 157.582 18.9425 157.274 18.9425C156.853 18.9425 156.502 19.0369 156.22 19.2259C155.938 19.4115 155.797 19.6518 155.797 19.9467C155.797 20.2019 155.892 20.4074 156.081 20.5632C156.27 20.719 156.574 20.8466 156.995 20.946L158.208 21.2244C158.911 21.3868 159.435 21.6371 159.779 21.9751C160.124 22.3132 160.297 22.7524 160.297 23.2926C160.297 23.75 160.164 24.1577 159.899 24.5156C159.637 24.8703 159.271 25.1487 158.8 25.3509C158.333 25.553 157.791 25.6541 157.174 25.6541C156.319 25.6541 155.622 25.4718 155.081 25.1072C154.541 24.7393 154.21 24.2173 154.087 23.5412L155.524 23.3224C155.613 23.697 155.797 23.9804 156.076 24.1726C156.354 24.3615 156.717 24.456 157.164 24.456C157.652 24.456 158.041 24.3549 158.333 24.1527C158.624 23.9472 158.77 23.697 158.77 23.402C158.77 23.1634 158.681 22.9628 158.502 22.8004C158.326 22.638 158.056 22.5154 157.691 22.4325L156.399 22.1491C155.686 21.9867 155.159 21.7282 154.818 21.3736C154.48 21.0189 154.311 20.5698 154.311 20.0263C154.311 19.5755 154.437 19.1811 154.689 18.843C154.94 18.505 155.288 18.2415 155.733 18.0526C156.177 17.8603 156.685 17.7642 157.259 17.7642C158.084 17.7642 158.734 17.9432 159.208 18.3011C159.682 18.6558 159.995 19.1314 160.147 19.728ZM167.653 19.728L166.306 19.9666C166.25 19.7943 166.16 19.6302 166.037 19.4744C165.918 19.3187 165.756 19.1911 165.55 19.0916C165.345 18.9922 165.088 18.9425 164.78 18.9425C164.359 18.9425 164.007 19.0369 163.726 19.2259C163.444 19.4115 163.303 19.6518 163.303 19.9467C163.303 20.2019 163.398 20.4074 163.586 20.5632C163.775 20.719 164.08 20.8466 164.501 20.946L165.714 21.2244C166.417 21.3868 166.941 21.6371 167.285 21.9751C167.63 22.3132 167.802 22.7524 167.802 23.2926C167.802 23.75 167.67 24.1577 167.405 24.5156C167.143 24.8703 166.777 25.1487 166.306 25.3509C165.839 25.553 165.297 25.6541 164.68 25.6541C163.825 25.6541 163.127 25.4718 162.587 25.1072C162.047 24.7393 161.715 24.2173 161.593 23.5412L163.03 23.3224C163.119 23.697 163.303 23.9804 163.581 24.1726C163.86 24.3615 164.223 24.456 164.67 24.456C165.157 24.456 165.547 24.3549 165.839 24.1527C166.13 23.9472 166.276 23.697 166.276 23.402C166.276 23.1634 166.187 22.9628 166.008 22.8004C165.832 22.638 165.562 22.5154 165.197 22.4325L163.905 22.1491C163.192 21.9867 162.665 21.7282 162.324 21.3736C161.986 21.0189 161.817 20.5698 161.817 20.0263C161.817 19.5755 161.943 19.1811 162.194 18.843C162.446 18.505 162.794 18.2415 163.238 18.0526C163.683 17.8603 164.191 17.7642 164.765 17.7642C165.59 17.7642 166.24 17.9432 166.714 18.3011C167.188 18.6558 167.501 19.1314 167.653 19.728ZM172.653 25.6541C171.914 25.6541 171.278 25.4867 170.744 25.152C170.214 24.8139 169.806 24.3482 169.521 23.755C169.236 23.1617 169.094 22.4822 169.094 21.7166C169.094 20.9411 169.24 20.2566 169.531 19.6634C169.823 19.0668 170.234 18.6011 170.764 18.2663C171.295 17.9316 171.919 17.7642 172.638 17.7642C173.219 17.7642 173.736 17.8719 174.19 18.0874C174.644 18.2995 175.01 18.5978 175.288 18.9822C175.57 19.3667 175.737 19.8158 175.79 20.3295H174.344C174.264 19.9716 174.082 19.6634 173.797 19.4048C173.515 19.1463 173.137 19.017 172.663 19.017C172.249 19.017 171.886 19.1264 171.575 19.3452C171.266 19.5606 171.026 19.8688 170.854 20.2699C170.681 20.6676 170.595 21.1383 170.595 21.6818C170.595 22.2386 170.68 22.7192 170.849 23.1236C171.018 23.5279 171.256 23.8411 171.565 24.0632C171.876 24.2853 172.242 24.3963 172.663 24.3963C172.945 24.3963 173.2 24.3449 173.429 24.2422C173.661 24.1361 173.855 23.9853 174.011 23.7898C174.17 23.5942 174.281 23.3589 174.344 23.0838H175.79C175.737 23.5777 175.577 24.0185 175.308 24.4062C175.04 24.794 174.68 25.099 174.229 25.321C173.782 25.5431 173.257 25.6541 172.653 25.6541ZM180.597 25.6541C179.881 25.6541 179.256 25.4901 178.722 25.1619C178.189 24.8338 177.775 24.3748 177.48 23.7848C177.185 23.1948 177.037 22.5054 177.037 21.7166C177.037 20.9245 177.185 20.2318 177.48 19.6385C177.775 19.0452 178.189 18.5845 178.722 18.2564C179.256 17.9283 179.881 17.7642 180.597 17.7642C181.313 17.7642 181.937 17.9283 182.471 18.2564C183.005 18.5845 183.419 19.0452 183.714 19.6385C184.009 20.2318 184.156 20.9245 184.156 21.7166C184.156 22.5054 184.009 23.1948 183.714 23.7848C183.419 24.3748 183.005 24.8338 182.471 25.1619C181.937 25.4901 181.313 25.6541 180.597 25.6541ZM180.602 24.4062C181.066 24.4062 181.45 24.2836 181.755 24.0384C182.06 23.7931 182.285 23.4666 182.431 23.0589C182.58 22.6513 182.655 22.2022 182.655 21.7116C182.655 21.2244 182.58 20.777 182.431 20.3693C182.285 19.9583 182.06 19.6286 181.755 19.38C181.45 19.1314 181.066 19.0071 180.602 19.0071C180.134 19.0071 179.747 19.1314 179.438 19.38C179.133 19.6286 178.906 19.9583 178.757 20.3693C178.611 20.777 178.539 21.2244 178.539 21.7116C178.539 22.2022 178.611 22.6513 178.757 23.0589C178.906 23.4666 179.133 23.7931 179.438 24.0384C179.747 24.2836 180.134 24.4062 180.602 24.4062ZM188.674 25.6491C188.058 25.6491 187.508 25.4917 187.024 25.1768C186.543 24.8587 186.165 24.4062 185.89 23.8196C185.618 23.2296 185.483 22.522 185.483 21.6967C185.483 20.8714 185.62 20.1655 185.895 19.5788C186.174 18.9922 186.555 18.5431 187.039 18.2315C187.523 17.92 188.071 17.7642 188.684 17.7642C189.158 17.7642 189.539 17.8438 189.828 18.0028C190.119 18.1586 190.345 18.3409 190.504 18.5497C190.666 18.7585 190.792 18.9425 190.882 19.1016H190.971V15.3182H192.458V25.5H191.006V24.3118H190.882C190.792 24.4742 190.663 24.6598 190.494 24.8686C190.328 25.0774 190.1 25.2597 189.808 25.4155C189.516 25.5713 189.138 25.6491 188.674 25.6491ZM189.002 24.3814C189.43 24.3814 189.791 24.2687 190.086 24.0433C190.385 23.8146 190.61 23.4981 190.762 23.0938C190.918 22.6894 190.996 22.2187 190.996 21.6818C190.996 21.1515 190.92 20.6875 190.767 20.2898C190.615 19.892 190.391 19.5821 190.096 19.3601C189.801 19.138 189.437 19.027 189.002 19.027C188.555 19.027 188.182 19.143 187.884 19.375C187.586 19.607 187.36 19.9235 187.208 20.3246C187.059 20.7256 186.984 21.178 186.984 21.6818C186.984 22.1922 187.06 22.6513 187.213 23.0589C187.365 23.4666 187.591 23.7898 187.889 24.0284C188.19 24.2637 188.562 24.3814 189.002 24.3814ZM197.871 25.6541C197.118 25.6541 196.47 25.4934 195.927 25.1719C195.386 24.8471 194.969 24.3913 194.674 23.8047C194.382 23.2147 194.236 22.5237 194.236 21.7315C194.236 20.9493 194.382 20.2599 194.674 19.6634C194.969 19.0668 195.38 18.6011 195.907 18.2663C196.437 17.9316 197.057 17.7642 197.766 17.7642C198.197 17.7642 198.615 17.8355 199.019 17.978C199.423 18.1205 199.786 18.3442 200.108 18.6491C200.429 18.9541 200.683 19.3501 200.868 19.8374C201.054 20.3213 201.147 20.9096 201.147 21.6023V22.1293H195.077V21.0156H199.69C199.69 20.6245 199.611 20.2782 199.452 19.9766C199.292 19.6716 199.069 19.4313 198.78 19.2557C198.495 19.08 198.161 18.9922 197.776 18.9922C197.358 18.9922 196.994 19.0949 196.682 19.3004C196.374 19.5026 196.135 19.7678 195.966 20.0959C195.801 20.4207 195.718 20.7737 195.718 21.1548V22.0249C195.718 22.5353 195.807 22.9695 195.986 23.3274C196.169 23.6854 196.422 23.9588 196.747 24.1477C197.072 24.3333 197.451 24.4261 197.885 24.4261C198.167 24.4261 198.424 24.3864 198.656 24.3068C198.888 24.224 199.089 24.1013 199.258 23.9389C199.427 23.7765 199.556 23.576 199.645 23.3374L201.052 23.5909C200.94 24.0052 200.738 24.3681 200.446 24.6797C200.157 24.9879 199.795 25.2282 199.357 25.4006C198.923 25.5696 198.427 25.6541 197.871 25.6541Z" fill="#CAC6DD"/>
<path d="M71.2784 48.5V36.8636H73.0341V42.4205H73.1761L78.0568 36.8636H80.267L75.5739 42.1023L80.2841 48.5H78.1705L74.4091 43.3011L73.0341 44.8807V48.5H71.2784ZM83.8068 48.6932C83.2538 48.6932 82.7538 48.5909 82.3068 48.3864C81.8598 48.178 81.5057 47.8769 81.2443 47.483C80.9867 47.089 80.858 46.6061 80.858 46.0341C80.858 45.5417 80.9527 45.1364 81.142 44.8182C81.3314 44.5 81.5871 44.2481 81.9091 44.0625C82.2311 43.8769 82.5909 43.7367 82.9886 43.642C83.3864 43.5473 83.7917 43.4754 84.2045 43.4261C84.7273 43.3655 85.1515 43.3163 85.4773 43.2784C85.803 43.2367 86.0398 43.1705 86.1875 43.0795C86.3352 42.9886 86.4091 42.8409 86.4091 42.6364V42.5966C86.4091 42.1004 86.2689 41.7159 85.9886 41.4432C85.7121 41.1705 85.2992 41.0341 84.75 41.0341C84.178 41.0341 83.7273 41.161 83.3977 41.4148C83.072 41.6648 82.8466 41.9432 82.7216 42.25L81.125 41.8864C81.3144 41.3561 81.5909 40.928 81.9545 40.6023C82.322 40.2727 82.7443 40.0341 83.2216 39.8864C83.6989 39.7348 84.2008 39.6591 84.7273 39.6591C85.0758 39.6591 85.4451 39.7008 85.8352 39.7841C86.2292 39.8636 86.5966 40.0114 86.9375 40.2273C87.2822 40.4432 87.5644 40.7519 87.7841 41.1534C88.0038 41.5511 88.1136 42.0682 88.1136 42.7045V48.5H86.4545V47.3068H86.3864C86.2765 47.5265 86.1117 47.7424 85.892 47.9545C85.6723 48.1667 85.3902 48.3428 85.0455 48.483C84.7008 48.6231 84.2879 48.6932 83.8068 48.6932ZM84.1761 47.3295C84.6458 47.3295 85.0473 47.2367 85.3807 47.0511C85.7178 46.8655 85.9735 46.6231 86.1477 46.3239C86.3258 46.0208 86.4148 45.697 86.4148 45.3523V44.2273C86.3542 44.2879 86.2367 44.3447 86.0625 44.3977C85.892 44.447 85.697 44.4905 85.4773 44.5284C85.2576 44.5625 85.0436 44.5947 84.8352 44.625C84.6269 44.6515 84.4527 44.6742 84.3125 44.6932C83.983 44.7348 83.6818 44.8049 83.4091 44.9034C83.1402 45.0019 82.9242 45.1439 82.7614 45.3295C82.6023 45.5114 82.5227 45.7538 82.5227 46.0568C82.5227 46.4773 82.678 46.7955 82.9886 47.0114C83.2992 47.2235 83.6951 47.3295 84.1761 47.3295ZM96.4162 41.9034L94.8764 42.1761C94.812 41.9792 94.7098 41.7917 94.5696 41.6136C94.4332 41.4356 94.2476 41.2898 94.0128 41.1761C93.7779 41.0625 93.4844 41.0057 93.1321 41.0057C92.651 41.0057 92.2495 41.1136 91.9276 41.3295C91.6056 41.5417 91.4446 41.8163 91.4446 42.1534C91.4446 42.4451 91.5526 42.6799 91.7685 42.858C91.9844 43.036 92.3329 43.1818 92.8139 43.2955L94.2003 43.6136C95.0033 43.7992 95.6018 44.0852 95.9957 44.4716C96.3897 44.858 96.5866 45.3598 96.5866 45.9773C96.5866 46.5 96.4351 46.9659 96.1321 47.375C95.8329 47.7803 95.4143 48.0985 94.8764 48.3295C94.3423 48.5606 93.723 48.6761 93.0185 48.6761C92.0412 48.6761 91.2438 48.4678 90.6264 48.0511C90.009 47.6307 89.6302 47.0341 89.4901 46.2614L91.1321 46.0114C91.2344 46.4394 91.4446 46.7633 91.7628 46.983C92.081 47.1989 92.4957 47.3068 93.0071 47.3068C93.5639 47.3068 94.009 47.1913 94.3423 46.9602C94.6757 46.7254 94.8423 46.4394 94.8423 46.1023C94.8423 45.8295 94.7401 45.6004 94.5355 45.4148C94.3348 45.2292 94.026 45.089 93.6094 44.9943L92.1321 44.6705C91.3177 44.4848 90.7154 44.1894 90.3253 43.7841C89.9389 43.3788 89.7457 42.8655 89.7457 42.2443C89.7457 41.7292 89.8897 41.2784 90.1776 40.892C90.4654 40.5057 90.8632 40.2045 91.3707 39.9886C91.8783 39.7689 92.4598 39.6591 93.1151 39.6591C94.0582 39.6591 94.8007 39.8636 95.3423 40.2727C95.884 40.678 96.242 41.2216 96.4162 41.9034ZM101.983 48.6591C101.203 48.6591 100.506 48.5246 99.892 48.2557C99.2822 47.9867 98.7992 47.6136 98.4432 47.1364C98.0909 46.6553 97.9015 46.0985 97.875 45.4659H99.6591C99.6818 45.8106 99.7973 46.1098 100.006 46.3636C100.218 46.6136 100.494 46.8068 100.835 46.9432C101.176 47.0795 101.555 47.1477 101.972 47.1477C102.43 47.1477 102.835 47.0682 103.188 46.9091C103.544 46.75 103.822 46.5284 104.023 46.2443C104.223 45.9564 104.324 45.625 104.324 45.25C104.324 44.8598 104.223 44.517 104.023 44.2216C103.826 43.9223 103.536 43.6875 103.153 43.517C102.775 43.3466 102.316 43.2614 101.778 43.2614H100.795V41.8295H101.778C102.21 41.8295 102.589 41.7519 102.915 41.5966C103.244 41.4413 103.502 41.2254 103.688 40.9489C103.873 40.6686 103.966 40.3409 103.966 39.9659C103.966 39.6061 103.884 39.2936 103.722 39.0284C103.563 38.7595 103.335 38.5492 103.04 38.3977C102.748 38.2462 102.403 38.1705 102.006 38.1705C101.627 38.1705 101.273 38.2405 100.943 38.3807C100.617 38.517 100.352 38.714 100.148 38.9716C99.9432 39.2254 99.8333 39.5303 99.8182 39.8864H98.1193C98.1383 39.2576 98.3239 38.7045 98.6761 38.2273C99.0322 37.75 99.5019 37.3769 100.085 37.108C100.669 36.839 101.316 36.7045 102.028 36.7045C102.775 36.7045 103.419 36.8504 103.96 37.142C104.506 37.4299 104.926 37.8144 105.222 38.2955C105.521 38.7765 105.669 39.303 105.665 39.875C105.669 40.5265 105.487 41.0795 105.119 41.5341C104.756 41.9886 104.271 42.2936 103.665 42.4489V42.5398C104.438 42.6572 105.036 42.964 105.46 43.4602C105.888 43.9564 106.1 44.572 106.097 45.3068C106.1 45.947 105.922 46.5208 105.562 47.0284C105.206 47.536 104.72 47.9356 104.102 48.2273C103.485 48.5152 102.778 48.6591 101.983 48.6591ZM111.795 48.6591C111.015 48.6591 110.318 48.5246 109.705 48.2557C109.095 47.9867 108.612 47.6136 108.256 47.1364C107.903 46.6553 107.714 46.0985 107.688 45.4659H109.472C109.494 45.8106 109.61 46.1098 109.818 46.3636C110.03 46.6136 110.307 46.8068 110.648 46.9432C110.989 47.0795 111.367 47.1477 111.784 47.1477C112.242 47.1477 112.648 47.0682 113 46.9091C113.356 46.75 113.634 46.5284 113.835 46.2443C114.036 45.9564 114.136 45.625 114.136 45.25C114.136 44.8598 114.036 44.517 113.835 44.2216C113.638 43.9223 113.348 43.6875 112.966 43.517C112.587 43.3466 112.129 43.2614 111.591 43.2614H110.608V41.8295H111.591C112.023 41.8295 112.402 41.7519 112.727 41.5966C113.057 41.4413 113.314 41.2254 113.5 40.9489C113.686 40.6686 113.778 40.3409 113.778 39.9659C113.778 39.6061 113.697 39.2936 113.534 39.0284C113.375 38.7595 113.148 38.5492 112.852 38.3977C112.561 38.2462 112.216 38.1705 111.818 38.1705C111.439 38.1705 111.085 38.2405 110.756 38.3807C110.43 38.517 110.165 38.714 109.96 38.9716C109.756 39.2254 109.646 39.5303 109.631 39.8864H107.932C107.951 39.2576 108.136 38.7045 108.489 38.2273C108.845 37.75 109.314 37.3769 109.898 37.108C110.481 36.839 111.129 36.7045 111.841 36.7045C112.587 36.7045 113.231 36.8504 113.773 37.142C114.318 37.4299 114.739 37.8144 115.034 38.2955C115.333 38.7765 115.481 39.303 115.477 39.875C115.481 40.5265 115.299 41.0795 114.932 41.5341C114.568 41.9886 114.083 42.2936 113.477 42.4489V42.5398C114.25 42.6572 114.848 42.964 115.273 43.4602C115.701 43.9564 115.913 44.572 115.909 45.3068C115.913 45.947 115.735 46.5208 115.375 47.0284C115.019 47.536 114.532 47.9356 113.915 48.2273C113.297 48.5152 112.591 48.6591 111.795 48.6591ZM117.312 46.2273V44.8068L122.341 36.8636H123.46V38.9545H122.75L119.153 44.6477V44.7386H126.045V46.2273H117.312ZM122.83 48.5V45.7955L122.841 45.1477V36.8636H124.506V48.5H122.83ZM131.366 48.6591C130.654 48.6591 130.014 48.5227 129.446 48.25C128.882 47.9735 128.431 47.5947 128.094 47.1136C127.757 46.6326 127.577 46.0833 127.554 45.4659H129.259C129.3 45.9659 129.522 46.3769 129.923 46.6989C130.325 47.0208 130.806 47.1818 131.366 47.1818C131.813 47.1818 132.209 47.0795 132.554 46.875C132.902 46.6667 133.175 46.3807 133.372 46.017C133.573 45.6534 133.673 45.2386 133.673 44.7727C133.673 44.2992 133.571 43.8769 133.366 43.5057C133.162 43.1345 132.88 42.8428 132.52 42.6307C132.164 42.4186 131.755 42.3106 131.293 42.3068C130.94 42.3068 130.586 42.3674 130.23 42.4886C129.874 42.6098 129.586 42.7689 129.366 42.9659L127.759 42.7273L128.412 36.8636H134.81V38.3693H129.872L129.503 41.625H129.571C129.798 41.4053 130.099 41.2216 130.474 41.0739C130.853 40.9261 131.259 40.8523 131.69 40.8523C132.399 40.8523 133.029 41.0208 133.582 41.358C134.139 41.6951 134.577 42.1553 134.895 42.7386C135.217 43.3182 135.376 43.9848 135.372 44.7386C135.376 45.4924 135.205 46.1648 134.861 46.7557C134.52 47.3466 134.046 47.8125 133.44 48.1534C132.838 48.4905 132.147 48.6591 131.366 48.6591ZM142.112 42.8466V44.3182H136.953V42.8466H142.112ZM143.876 48.5V39.7727H145.518V41.1591H145.609C145.768 40.6894 146.049 40.3201 146.45 40.0511C146.856 39.7784 147.314 39.642 147.825 39.642C147.931 39.642 148.056 39.6458 148.2 39.6534C148.348 39.661 148.464 39.6705 148.547 39.6818V41.3068C148.479 41.2879 148.357 41.267 148.183 41.2443C148.009 41.2178 147.835 41.2045 147.661 41.2045C147.259 41.2045 146.901 41.2898 146.587 41.4602C146.276 41.6269 146.03 41.8598 145.848 42.1591C145.666 42.4545 145.575 42.7917 145.575 43.1705V48.5H143.876ZM153.545 48.6591C152.765 48.6591 152.068 48.5246 151.455 48.2557C150.845 47.9867 150.362 47.6136 150.006 47.1364C149.653 46.6553 149.464 46.0985 149.438 45.4659H151.222C151.244 45.8106 151.36 46.1098 151.568 46.3636C151.78 46.6136 152.057 46.8068 152.398 46.9432C152.739 47.0795 153.117 47.1477 153.534 47.1477C153.992 47.1477 154.398 47.0682 154.75 46.9091C155.106 46.75 155.384 46.5284 155.585 46.2443C155.786 45.9564 155.886 45.625 155.886 45.25C155.886 44.8598 155.786 44.517 155.585 44.2216C155.388 43.9223 155.098 43.6875 154.716 43.517C154.337 43.3466 153.879 43.2614 153.341 43.2614H152.358V41.8295H153.341C153.773 41.8295 154.152 41.7519 154.477 41.5966C154.807 41.4413 155.064 41.2254 155.25 40.9489C155.436 40.6686 155.528 40.3409 155.528 39.9659C155.528 39.6061 155.447 39.2936 155.284 39.0284C155.125 38.7595 154.898 38.5492 154.602 38.3977C154.311 38.2462 153.966 38.1705 153.568 38.1705C153.189 38.1705 152.835 38.2405 152.506 38.3807C152.18 38.517 151.915 38.714 151.71 38.9716C151.506 39.2254 151.396 39.5303 151.381 39.8864H149.682C149.701 39.2576 149.886 38.7045 150.239 38.2273C150.595 37.75 151.064 37.3769 151.648 37.108C152.231 36.839 152.879 36.7045 153.591 36.7045C154.337 36.7045 154.981 36.8504 155.523 37.142C156.068 37.4299 156.489 37.8144 156.784 38.2955C157.083 38.7765 157.231 39.303 157.227 39.875C157.231 40.5265 157.049 41.0795 156.682 41.5341C156.318 41.9886 155.833 42.2936 155.227 42.4489V42.5398C156 42.6572 156.598 42.964 157.023 43.4602C157.451 43.9564 157.663 44.572 157.659 45.3068C157.663 45.947 157.485 46.5208 157.125 47.0284C156.769 47.536 156.282 47.9356 155.665 48.2273C155.047 48.5152 154.341 48.6591 153.545 48.6591ZM159.307 48.5V47.2273L163.244 43.1477C163.665 42.7045 164.011 42.3163 164.284 41.983C164.561 41.6458 164.767 41.3258 164.903 41.0227C165.04 40.7197 165.108 40.3977 165.108 40.0568C165.108 39.6705 165.017 39.3371 164.835 39.0568C164.653 38.7727 164.405 38.5549 164.091 38.4034C163.777 38.2481 163.422 38.1705 163.028 38.1705C162.612 38.1705 162.248 38.2557 161.938 38.4261C161.627 38.5966 161.388 38.8371 161.222 39.1477C161.055 39.4583 160.972 39.822 160.972 40.2386H159.295C159.295 39.5303 159.458 38.911 159.784 38.3807C160.11 37.8504 160.557 37.4394 161.125 37.1477C161.693 36.8523 162.339 36.7045 163.062 36.7045C163.794 36.7045 164.438 36.8504 164.994 37.142C165.555 37.4299 165.992 37.8239 166.307 38.3239C166.621 38.8201 166.778 39.3807 166.778 40.0057C166.778 40.4375 166.697 40.8598 166.534 41.2727C166.375 41.6856 166.097 42.1458 165.699 42.6534C165.301 43.1572 164.748 43.7689 164.04 44.4886L161.727 46.9091V46.9943H166.966V48.5H159.307Z" fill="#CAC6DD"/>
<defs>
<filter id="filter1_d_1_283" x="9" y="9" width="46" height="46" filterUnits="userSpaceOnUse" color-interpolation-filters="sRGB">
<feFlood flood-opacity="0" result="BackgroundImageFix"/>
<feColorMatrix in="SourceAlpha" type="matrix" values="0 0 0 0 0 0 0 0 0 0 0 0 0 0 0 0 0 0 127 0" result="hardAlpha"/>
<feMorphology radius="1" operator="dilate" in="SourceAlpha" result="effect1_dropShadow_1_283"/>
<feOffset/>
<feComposite in2="hardAlpha" operator="out"/>
<feColorMatrix type="matrix" values="0 0 0 0 0.176471 0 0 0 0 0.180392 0 0 0 0 0.282353 0 0 0 1 0"/>
<feBlend mode="normal" in2="BackgroundImageFix" result="effect1_dropShadow_1_283"/>
<feBlend mode="normal" in="SourceGraphic" in2="effect1_dropShadow_1_283" result="shape"/>
</filter>
<linearGradient id="paint0_linear_1_283" x1="106" y1="-2.61303e-06" x2="119.259" y2="47.6564" gradientUnits="userSpaceOnUse">
<stop stop-color="#1B1C36"/>
<stop offset="1" stop-color="#70717A"/>
</linearGradient>
<linearGradient id="paint1_linear_1_283" x1="212" y1="60.0976" x2="23.2737" y2="-33.9907" gradientUnits="userSpaceOnUse">
<stop stop-color="white" stop-opacity="0.07"/>
<stop offset="1" stop-color="white" stop-opacity="0.15"/>
</linearGradient>
</defs>
</svg>
