<svg width="221" height="64" viewBox="0 0 221 64" fill="none" xmlns="http://www.w3.org/2000/svg">
<rect x="0.5" y="0.5" width="220" height="63" rx="15.5" fill="url(#paint0_linear_1_271)" fill-opacity="0.16"/>
<rect x="0.5" y="0.5" width="220" height="63" rx="15.5" stroke="url(#paint1_linear_1_271)"/>
<g filter="url(#filter1_d_1_271)">
<rect x="10" y="10" width="44" height="44" rx="12" fill="white" fill-opacity="0.07" shape-rendering="crispEdges"/>
<path opacity="0.4" d="M31.5004 31.8027C32.8964 31.8027 34.1958 32.4668 35.7408 33.5193L43.636 38.8979C43.9619 39.12 44.1068 39.5275 43.9943 39.9055C43.7443 40.7456 43.3461 41.4561 42.7165 42.0812C41.8618 42.9298 40.8512 43.3401 39.6089 43.554C38.4212 43.7585 36.9391 43.7951 35.0958 43.8406L35.026 43.8423C32.6687 43.9007 30.3321 43.9007 27.9747 43.8423L27.9051 43.8406C26.0618 43.7951 24.5796 43.7585 23.392 43.554C22.1496 43.3401 21.139 42.9298 20.2843 42.0812C19.6546 41.4561 19.2565 40.7456 19.0065 39.9055C18.894 39.5275 19.0389 39.12 19.3648 38.8979L27.2601 33.5193C28.805 32.4668 30.1045 31.8027 31.5004 31.8027Z" fill="#4770FF"/>
<g opacity="0.4">
<path d="M19.1372 27.7413C18.8367 27.8853 18.6394 28.1825 18.6235 28.5154L18.593 29.1536C18.5123 30.9871 18.4917 32.7851 18.5312 34.6009L18.5341 34.7364C18.5538 35.6461 18.5717 36.4693 18.6142 37.2151L26.0355 32.1592C25.7474 31.9672 25.4435 31.7462 25.1056 31.5L20.0623 27.8261C19.793 27.6299 19.4377 27.5973 19.1372 27.7413Z" fill="#4770FF"/>
<path d="M43.8652 27.7413C44.1657 27.8853 44.363 28.1825 44.379 28.5154L44.4094 29.1536C44.4901 30.9871 44.5107 32.7851 44.4713 34.6009L44.4683 34.7364C44.4486 35.6461 44.4308 36.4694 44.3883 37.2152L36.9668 32.1593C37.2549 31.9672 37.5589 31.7462 37.8969 31.5L42.9401 27.8261C43.2094 27.6299 43.5647 27.5973 43.8652 27.7413Z" fill="#4770FF"/>
</g>
<path d="M28.8453 19.8498C29.7469 19.3889 30.579 19.1152 31.5006 19.1152C32.4221 19.1152 33.2543 19.3889 34.1559 19.8498C35.028 20.2955 36.0321 20.953 37.2891 21.7762L42.0225 24.8755C42.538 25.2121 42.9893 25.5069 43.3527 25.8443C42.8281 25.8675 42.3119 26.0425 41.8722 26.3629L36.8289 30.0368C36.4845 30.2876 36.2118 30.4855 35.9606 30.653C35.7487 30.7943 35.5724 30.9761 35.4392 31.1844C34.2335 30.4941 32.9438 29.9902 31.5011 29.9902C30.058 29.9902 28.7679 30.4945 27.5619 31.185C27.4286 30.9764 27.2521 30.7944 27.04 30.6529C26.7889 30.4855 26.5161 30.2876 26.1718 30.0368L21.1285 26.3629C20.6889 26.0426 20.1728 25.8676 19.6484 25.8443C20.0119 25.5069 20.4632 25.2121 20.9787 24.8755L25.712 21.7762C26.9691 20.953 27.9732 20.2955 28.8453 19.8498Z" fill="#4770FF"/>
</g>
<path d="M71.1186 25.5V15.3182H77.5021V16.6406H72.6548V19.7429H77.169V21.0604H72.6548V24.1776H77.5618V25.5H71.1186ZM79.4348 25.5V17.8636H80.8617V19.1065H80.9561C81.1152 18.6856 81.3754 18.3575 81.7367 18.1222C82.098 17.8835 82.5305 17.7642 83.0343 17.7642C83.5447 17.7642 83.9722 17.8835 84.3169 18.1222C84.665 18.3608 84.9218 18.6889 85.0875 19.1065H85.1671C85.3494 18.6989 85.6394 18.3741 86.0371 18.1321C86.4348 17.8868 86.9088 17.7642 87.459 17.7642C88.1517 17.7642 88.7168 17.9813 89.1543 18.4155C89.5951 18.8497 89.8155 19.5043 89.8155 20.3793V25.5H88.329V20.5185C88.329 20.0014 88.1882 19.6269 87.9064 19.3949C87.6247 19.1629 87.2883 19.0469 86.8972 19.0469C86.4133 19.0469 86.0371 19.196 85.7686 19.4943C85.5002 19.7893 85.3659 20.1688 85.3659 20.6328V25.5H83.8844V20.424C83.8844 20.0097 83.7551 19.6766 83.4966 19.4247C83.2381 19.1728 82.9017 19.0469 82.4874 19.0469C82.2057 19.0469 81.9455 19.1214 81.7069 19.2706C81.4715 19.4164 81.281 19.6203 81.1351 19.8821C80.9926 20.1439 80.9213 20.4472 80.9213 20.7919V25.5H79.4348ZM94.0302 25.669C93.5463 25.669 93.1088 25.5795 92.7177 25.4006C92.3266 25.2183 92.0167 24.9548 91.788 24.6101C91.5626 24.2654 91.4499 23.8428 91.4499 23.3423C91.4499 22.9115 91.5328 22.5568 91.6985 22.2784C91.8642 22 92.0879 21.7796 92.3697 21.6172C92.6514 21.4548 92.9663 21.3321 93.3143 21.2493C93.6623 21.1664 94.0169 21.1035 94.3782 21.0604C94.8356 21.0073 95.2068 20.9643 95.4918 20.9311C95.7769 20.8946 95.984 20.8366 96.1133 20.7571C96.2425 20.6776 96.3072 20.5483 96.3072 20.3693V20.3345C96.3072 19.9003 96.1845 19.5639 95.9393 19.3253C95.6973 19.0866 95.3361 18.9673 94.8555 18.9673C94.355 18.9673 93.9606 19.0784 93.6722 19.3004C93.3872 19.5192 93.19 19.7628 93.0806 20.0312L91.6836 19.7131C91.8493 19.2491 92.0913 18.8745 92.4094 18.5895C92.7309 18.3011 93.1005 18.0923 93.5181 17.9631C93.9357 17.8305 94.3749 17.7642 94.8356 17.7642C95.1405 17.7642 95.4637 17.8007 95.805 17.8736C96.1497 17.9432 96.4712 18.0724 96.7695 18.2614C97.0711 18.4503 97.3181 18.7204 97.5103 19.0717C97.7025 19.4197 97.7987 19.8722 97.7987 20.429V25.5H96.3469V24.456H96.2873C96.1912 24.6482 96.047 24.8371 95.8548 25.0227C95.6625 25.2083 95.4156 25.3625 95.114 25.4851C94.8124 25.6077 94.4511 25.669 94.0302 25.669ZM94.3533 24.4759C94.7643 24.4759 95.1156 24.3946 95.4073 24.2322C95.7023 24.0698 95.926 23.8577 96.0785 23.5959C96.2343 23.3307 96.3121 23.0473 96.3121 22.7457V21.7614C96.2591 21.8144 96.1564 21.8641 96.0039 21.9105C95.8548 21.9536 95.6841 21.9917 95.4918 22.0249C95.2996 22.0547 95.1123 22.0829 94.93 22.1094C94.7478 22.1326 94.5953 22.1525 94.4727 22.169C94.1843 22.2055 93.9208 22.2668 93.6822 22.353C93.4469 22.4392 93.2579 22.5634 93.1154 22.7259C92.9762 22.8849 92.9066 23.0971 92.9066 23.3622C92.9066 23.7301 93.0425 24.0085 93.3143 24.1974C93.5861 24.383 93.9324 24.4759 94.3533 24.4759ZM99.7786 25.5V17.8636H101.265V25.5H99.7786ZM100.529 16.6854C100.271 16.6854 100.049 16.5992 99.8631 16.4268C99.6808 16.2512 99.5897 16.0424 99.5897 15.8004C99.5897 15.5552 99.6808 15.3464 99.8631 15.174C100.049 14.9983 100.271 14.9105 100.529 14.9105C100.788 14.9105 101.008 14.9983 101.191 15.174C101.376 15.3464 101.469 15.5552 101.469 15.8004C101.469 16.0424 101.376 16.2512 101.191 16.4268C101.008 16.5992 100.788 16.6854 100.529 16.6854ZM104.751 15.3182V25.5H103.265V15.3182H104.751ZM112.679 25.669C112.195 25.669 111.757 25.5795 111.366 25.4006C110.975 25.2183 110.665 24.9548 110.436 24.6101C110.211 24.2654 110.098 23.8428 110.098 23.3423C110.098 22.9115 110.181 22.5568 110.347 22.2784C110.513 22 110.736 21.7796 111.018 21.6172C111.3 21.4548 111.615 21.3321 111.963 21.2493C112.311 21.1664 112.665 21.1035 113.027 21.0604C113.484 21.0073 113.855 20.9643 114.14 20.9311C114.425 20.8946 114.632 20.8366 114.762 20.7571C114.891 20.6776 114.956 20.5483 114.956 20.3693V20.3345C114.956 19.9003 114.833 19.5639 114.588 19.3253C114.346 19.0866 113.984 18.9673 113.504 18.9673C113.003 18.9673 112.609 19.0784 112.321 19.3004C112.036 19.5192 111.838 19.7628 111.729 20.0312L110.332 19.7131C110.498 19.2491 110.74 18.8745 111.058 18.5895C111.379 18.3011 111.749 18.0923 112.167 17.9631C112.584 17.8305 113.023 17.7642 113.484 17.7642C113.789 17.7642 114.112 17.8007 114.453 17.8736C114.798 17.9432 115.12 18.0724 115.418 18.2614C115.72 18.4503 115.967 18.7204 116.159 19.0717C116.351 19.4197 116.447 19.8722 116.447 20.429V25.5H114.995V24.456H114.936C114.84 24.6482 114.695 24.8371 114.503 25.0227C114.311 25.2083 114.064 25.3625 113.762 25.4851C113.461 25.6077 113.1 25.669 112.679 25.669ZM113.002 24.4759C113.413 24.4759 113.764 24.3946 114.056 24.2322C114.351 24.0698 114.574 23.8577 114.727 23.5959C114.883 23.3307 114.961 23.0473 114.961 22.7457V21.7614C114.908 21.8144 114.805 21.8641 114.652 21.9105C114.503 21.9536 114.333 21.9917 114.14 22.0249C113.948 22.0547 113.761 22.0829 113.578 22.1094C113.396 22.1326 113.244 22.1525 113.121 22.169C112.833 22.2055 112.569 22.2668 112.331 22.353C112.095 22.4392 111.906 22.5634 111.764 22.7259C111.625 22.8849 111.555 23.0971 111.555 23.3622C111.555 23.7301 111.691 24.0085 111.963 24.1974C112.234 24.383 112.581 24.4759 113.002 24.4759ZM121.286 25.6491C120.669 25.6491 120.119 25.4917 119.635 25.1768C119.155 24.8587 118.777 24.4062 118.502 23.8196C118.23 23.2296 118.094 22.522 118.094 21.6967C118.094 20.8714 118.231 20.1655 118.507 19.5788C118.785 18.9922 119.166 18.5431 119.65 18.2315C120.134 17.92 120.682 17.7642 121.296 17.7642C121.77 17.7642 122.151 17.8438 122.439 18.0028C122.731 18.1586 122.956 18.3409 123.115 18.5497C123.278 18.7585 123.404 18.9425 123.493 19.1016H123.583V15.3182H125.069V25.5H123.617V24.3118H123.493C123.404 24.4742 123.274 24.6598 123.105 24.8686C122.94 25.0774 122.711 25.2597 122.419 25.4155C122.128 25.5713 121.75 25.6491 121.286 25.6491ZM121.614 24.3814C122.041 24.3814 122.403 24.2687 122.698 24.0433C122.996 23.8146 123.221 23.4981 123.374 23.0938C123.53 22.6894 123.607 22.2187 123.607 21.6818C123.607 21.1515 123.531 20.6875 123.379 20.2898C123.226 19.892 123.003 19.5821 122.708 19.3601C122.413 19.138 122.048 19.027 121.614 19.027C121.166 19.027 120.794 19.143 120.495 19.375C120.197 19.607 119.972 19.9235 119.819 20.3246C119.67 20.7256 119.595 21.178 119.595 21.6818C119.595 22.1922 119.672 22.6513 119.824 23.0589C119.977 23.4666 120.202 23.7898 120.5 24.0284C120.802 24.2637 121.173 24.3814 121.614 24.3814ZM130.049 25.6491C129.433 25.6491 128.883 25.4917 128.399 25.1768C127.918 24.8587 127.54 24.4062 127.265 23.8196C126.993 23.2296 126.858 22.522 126.858 21.6967C126.858 20.8714 126.995 20.1655 127.27 19.5788C127.549 18.9922 127.93 18.5431 128.414 18.2315C128.898 17.92 129.446 17.7642 130.059 17.7642C130.533 17.7642 130.914 17.8438 131.203 18.0028C131.494 18.1586 131.72 18.3409 131.879 18.5497C132.041 18.7585 132.167 18.9425 132.257 19.1016H132.346V15.3182H133.833V25.5H132.381V24.3118H132.257C132.167 24.4742 132.038 24.6598 131.869 24.8686C131.703 25.0774 131.475 25.2597 131.183 25.4155C130.891 25.5713 130.513 25.6491 130.049 25.6491ZM130.377 24.3814C130.805 24.3814 131.166 24.2687 131.461 24.0433C131.76 23.8146 131.985 23.4981 132.137 23.0938C132.293 22.6894 132.371 22.2187 132.371 21.6818C132.371 21.1515 132.295 20.6875 132.142 20.2898C131.99 19.892 131.766 19.5821 131.471 19.3601C131.176 19.138 130.812 19.027 130.377 19.027C129.93 19.027 129.557 19.143 129.259 19.375C128.961 19.607 128.735 19.9235 128.583 20.3246C128.434 20.7256 128.359 21.178 128.359 21.6818C128.359 22.1922 128.435 22.6513 128.588 23.0589C128.74 23.4666 128.966 23.7898 129.264 24.0284C129.565 24.2637 129.937 24.3814 130.377 24.3814ZM135.954 25.5V17.8636H137.391V19.0767H137.471C137.61 18.6657 137.855 18.3426 138.206 18.1072C138.561 17.8686 138.962 17.7493 139.41 17.7493C139.502 17.7493 139.612 17.7526 139.738 17.7592C139.867 17.7659 139.968 17.7741 140.041 17.7841V19.206C139.981 19.1894 139.875 19.1712 139.723 19.1513C139.57 19.1281 139.418 19.1165 139.265 19.1165C138.914 19.1165 138.601 19.1911 138.326 19.3402C138.054 19.486 137.839 19.6899 137.68 19.9517C137.52 20.2102 137.441 20.5052 137.441 20.8366V25.5H135.954ZM144.345 25.6541C143.593 25.6541 142.945 25.4934 142.401 25.1719C141.861 24.8471 141.443 24.3913 141.148 23.8047C140.857 23.2147 140.711 22.5237 140.711 21.7315C140.711 20.9493 140.857 20.2599 141.148 19.6634C141.443 19.0668 141.854 18.6011 142.381 18.2663C142.912 17.9316 143.531 17.7642 144.241 17.7642C144.672 17.7642 145.089 17.8355 145.494 17.978C145.898 18.1205 146.261 18.3442 146.582 18.6491C146.904 18.9541 147.157 19.3501 147.343 19.8374C147.529 20.3213 147.621 20.9096 147.621 21.6023V22.1293H141.551V21.0156H146.165C146.165 20.6245 146.085 20.2782 145.926 19.9766C145.767 19.6716 145.543 19.4313 145.255 19.2557C144.97 19.08 144.635 18.9922 144.251 18.9922C143.833 18.9922 143.469 19.0949 143.157 19.3004C142.849 19.5026 142.61 19.7678 142.441 20.0959C142.275 20.4207 142.192 20.7737 142.192 21.1548V22.0249C142.192 22.5353 142.282 22.9695 142.461 23.3274C142.643 23.6854 142.897 23.9588 143.222 24.1477C143.546 24.3333 143.926 24.4261 144.36 24.4261C144.642 24.4261 144.899 24.3864 145.131 24.3068C145.363 24.224 145.563 24.1013 145.732 23.9389C145.901 23.7765 146.031 23.576 146.12 23.3374L147.527 23.5909C147.414 24.0052 147.212 24.3681 146.92 24.6797C146.632 24.9879 146.269 25.2282 145.832 25.4006C145.397 25.5696 144.902 25.6541 144.345 25.6541ZM154.993 19.728L153.646 19.9666C153.589 19.7943 153.5 19.6302 153.377 19.4744C153.258 19.3187 153.096 19.1911 152.89 19.0916C152.685 18.9922 152.428 18.9425 152.119 18.9425C151.699 18.9425 151.347 19.0369 151.066 19.2259C150.784 19.4115 150.643 19.6518 150.643 19.9467C150.643 20.2019 150.737 20.4074 150.926 20.5632C151.115 20.719 151.42 20.8466 151.841 20.946L153.054 21.2244C153.757 21.3868 154.28 21.6371 154.625 21.9751C154.97 22.3132 155.142 22.7524 155.142 23.2926C155.142 23.75 155.01 24.1577 154.744 24.5156C154.483 24.8703 154.116 25.1487 153.646 25.3509C153.178 25.553 152.637 25.6541 152.02 25.6541C151.165 25.6541 150.467 25.4718 149.927 25.1072C149.387 24.7393 149.055 24.2173 148.933 23.5412L150.369 23.3224C150.459 23.697 150.643 23.9804 150.921 24.1726C151.2 24.3615 151.563 24.456 152.01 24.456C152.497 24.456 152.887 24.3549 153.178 24.1527C153.47 23.9472 153.616 23.697 153.616 23.402C153.616 23.1634 153.526 22.9628 153.347 22.8004C153.172 22.638 152.902 22.5154 152.537 22.4325L151.244 22.1491C150.532 21.9867 150.005 21.7282 149.664 21.3736C149.325 21.0189 149.156 20.5698 149.156 20.0263C149.156 19.5755 149.282 19.1811 149.534 18.843C149.786 18.505 150.134 18.2415 150.578 18.0526C151.022 17.8603 151.531 17.7642 152.105 17.7642C152.93 17.7642 153.579 17.9432 154.053 18.3011C154.527 18.6558 154.841 19.1314 154.993 19.728ZM162.499 19.728L161.152 19.9666C161.095 19.7943 161.006 19.6302 160.883 19.4744C160.764 19.3187 160.601 19.1911 160.396 19.0916C160.19 18.9922 159.934 18.9425 159.625 18.9425C159.204 18.9425 158.853 19.0369 158.571 19.2259C158.29 19.4115 158.149 19.6518 158.149 19.9467C158.149 20.2019 158.243 20.4074 158.432 20.5632C158.621 20.719 158.926 20.8466 159.347 20.946L160.56 21.2244C161.263 21.3868 161.786 21.6371 162.131 21.9751C162.476 22.3132 162.648 22.7524 162.648 23.2926C162.648 23.75 162.516 24.1577 162.25 24.5156C161.989 24.8703 161.622 25.1487 161.152 25.3509C160.684 25.553 160.142 25.6541 159.526 25.6541C158.671 25.6541 157.973 25.4718 157.433 25.1072C156.893 24.7393 156.561 24.2173 156.439 23.5412L157.875 23.3224C157.965 23.697 158.149 23.9804 158.427 24.1726C158.706 24.3615 159.069 24.456 159.516 24.456C160.003 24.456 160.393 24.3549 160.684 24.1527C160.976 23.9472 161.122 23.697 161.122 23.402C161.122 23.1634 161.032 22.9628 160.853 22.8004C160.678 22.638 160.408 22.5154 160.043 22.4325L158.75 22.1491C158.038 21.9867 157.511 21.7282 157.169 21.3736C156.831 21.0189 156.662 20.5698 156.662 20.0263C156.662 19.5755 156.788 19.1811 157.04 18.843C157.292 18.505 157.64 18.2415 158.084 18.0526C158.528 17.8603 159.037 17.7642 159.61 17.7642C160.436 17.7642 161.085 17.9432 161.559 18.3011C162.033 18.6558 162.346 19.1314 162.499 19.728Z" fill="#CAC6DD"/>
<path d="M74.4091 48.6705C73.7045 48.6705 73.0758 48.4905 72.5227 48.1307C71.9735 47.767 71.5417 47.25 71.2273 46.5795C70.9167 45.9053 70.7614 45.0966 70.7614 44.1534C70.7614 43.2102 70.9186 42.4034 71.233 41.733C71.5511 41.0625 71.9867 40.5492 72.5398 40.1932C73.0928 39.8371 73.7197 39.6591 74.4205 39.6591C74.9621 39.6591 75.3977 39.75 75.7273 39.9318C76.0606 40.1098 76.3182 40.3182 76.5 40.5568C76.6856 40.7955 76.8295 41.0057 76.9318 41.1875H77.0341V36.8636H78.733V48.5H77.0739V47.142H76.9318C76.8295 47.3277 76.6818 47.5398 76.4886 47.7784C76.2992 48.017 76.0379 48.2254 75.7045 48.4034C75.3712 48.5814 74.9394 48.6705 74.4091 48.6705ZM74.7841 47.2216C75.2727 47.2216 75.6856 47.0928 76.0227 46.8352C76.3636 46.5739 76.6212 46.2121 76.7955 45.75C76.9735 45.2879 77.0625 44.75 77.0625 44.1364C77.0625 43.5303 76.9754 43 76.8011 42.5455C76.6269 42.0909 76.3712 41.7367 76.0341 41.483C75.697 41.2292 75.2803 41.1023 74.7841 41.1023C74.2727 41.1023 73.8466 41.2348 73.5057 41.5C73.1648 41.7652 72.9072 42.1269 72.733 42.5852C72.5625 43.0436 72.4773 43.5606 72.4773 44.1364C72.4773 44.7197 72.5644 45.2443 72.7386 45.7102C72.9129 46.1761 73.1705 46.5455 73.5114 46.8182C73.8561 47.0871 74.2803 47.2216 74.7841 47.2216ZM83.1974 48.6932C82.6444 48.6932 82.1444 48.5909 81.6974 48.3864C81.2505 48.178 80.8963 47.8769 80.6349 47.483C80.3774 47.089 80.2486 46.6061 80.2486 46.0341C80.2486 45.5417 80.3433 45.1364 80.5327 44.8182C80.7221 44.5 80.9777 44.2481 81.2997 44.0625C81.6217 43.8769 81.9815 43.7367 82.3793 43.642C82.777 43.5473 83.1823 43.4754 83.5952 43.4261C84.1179 43.3655 84.5421 43.3163 84.8679 43.2784C85.1937 43.2367 85.4304 43.1705 85.5781 43.0795C85.7259 42.9886 85.7997 42.8409 85.7997 42.6364V42.5966C85.7997 42.1004 85.6596 41.7159 85.3793 41.4432C85.1027 41.1705 84.6899 41.0341 84.1406 41.0341C83.5687 41.0341 83.1179 41.161 82.7884 41.4148C82.4626 41.6648 82.2372 41.9432 82.1122 42.25L80.5156 41.8864C80.705 41.3561 80.9815 40.928 81.3452 40.6023C81.7126 40.2727 82.1349 40.0341 82.6122 39.8864C83.0895 39.7348 83.5914 39.6591 84.1179 39.6591C84.4664 39.6591 84.8357 39.7008 85.2259 39.7841C85.6198 39.8636 85.9872 40.0114 86.3281 40.2273C86.6728 40.4432 86.955 40.7519 87.1747 41.1534C87.3944 41.5511 87.5043 42.0682 87.5043 42.7045V48.5H85.8452V47.3068H85.777C85.6671 47.5265 85.5024 47.7424 85.2827 47.9545C85.063 48.1667 84.7808 48.3428 84.4361 48.483C84.0914 48.6231 83.6785 48.6932 83.1974 48.6932ZM83.5668 47.3295C84.0365 47.3295 84.438 47.2367 84.7713 47.0511C85.1084 46.8655 85.3641 46.6231 85.5384 46.3239C85.7164 46.0208 85.8054 45.697 85.8054 45.3523V44.2273C85.7448 44.2879 85.6274 44.3447 85.4531 44.3977C85.2827 44.447 85.0876 44.4905 84.8679 44.5284C84.6482 44.5625 84.4342 44.5947 84.2259 44.625C84.0175 44.6515 83.8433 44.6742 83.7031 44.6932C83.3736 44.7348 83.0724 44.8049 82.7997 44.9034C82.5308 45.0019 82.3149 45.1439 82.152 45.3295C81.9929 45.5114 81.9134 45.7538 81.9134 46.0568C81.9134 46.4773 82.0687 46.7955 82.3793 47.0114C82.6899 47.2235 83.0857 47.3295 83.5668 47.3295ZM96.4205 39.7727L93.2557 48.5H91.4375L88.267 39.7727H90.0909L92.3011 46.4886H92.392L94.5966 39.7727H96.4205ZM97.517 48.5V39.7727H99.2159V48.5H97.517ZM98.375 38.4261C98.0795 38.4261 97.8258 38.3277 97.6136 38.1307C97.4053 37.9299 97.3011 37.6913 97.3011 37.4148C97.3011 37.1345 97.4053 36.8958 97.6136 36.6989C97.8258 36.4981 98.0795 36.3977 98.375 36.3977C98.6705 36.3977 98.9223 36.4981 99.1307 36.6989C99.3428 36.8958 99.4489 37.1345 99.4489 37.4148C99.4489 37.6913 99.3428 37.9299 99.1307 38.1307C98.9223 38.3277 98.6705 38.4261 98.375 38.4261ZM104.268 48.6705C103.564 48.6705 102.935 48.4905 102.382 48.1307C101.833 47.767 101.401 47.25 101.087 46.5795C100.776 45.9053 100.621 45.0966 100.621 44.1534C100.621 43.2102 100.778 42.4034 101.092 41.733C101.411 41.0625 101.846 40.5492 102.399 40.1932C102.952 39.8371 103.579 39.6591 104.28 39.6591C104.821 39.6591 105.257 39.75 105.587 39.9318C105.92 40.1098 106.178 40.3182 106.359 40.5568C106.545 40.7955 106.689 41.0057 106.791 41.1875H106.893V36.8636H108.592V48.5H106.933V47.142H106.791C106.689 47.3277 106.541 47.5398 106.348 47.7784C106.159 48.017 105.897 48.2254 105.564 48.4034C105.231 48.5814 104.799 48.6705 104.268 48.6705ZM104.643 47.2216C105.132 47.2216 105.545 47.0928 105.882 46.8352C106.223 46.5739 106.481 46.2121 106.655 45.75C106.833 45.2879 106.922 44.75 106.922 44.1364C106.922 43.5303 106.835 43 106.661 42.5455C106.486 42.0909 106.231 41.7367 105.893 41.483C105.556 41.2292 105.14 41.1023 104.643 41.1023C104.132 41.1023 103.706 41.2348 103.365 41.5C103.024 41.7652 102.767 42.1269 102.592 42.5852C102.422 43.0436 102.337 43.5606 102.337 44.1364C102.337 44.7197 102.424 45.2443 102.598 45.7102C102.772 46.1761 103.03 46.5455 103.371 46.8182C103.715 47.0871 104.14 47.2216 104.643 47.2216ZM110.517 39.7727H112.216V49.0682C112.216 49.6515 112.11 50.1439 111.898 50.5455C111.689 50.947 111.379 51.2519 110.966 51.4602C110.557 51.6686 110.051 51.7727 109.449 51.7727C109.388 51.7727 109.331 51.7727 109.278 51.7727C109.222 51.7727 109.163 51.7708 109.102 51.767V50.3068C109.155 50.3068 109.203 50.3068 109.244 50.3068C109.282 50.3068 109.326 50.3068 109.375 50.3068C109.777 50.3068 110.066 50.1989 110.244 49.983C110.426 49.7708 110.517 49.4621 110.517 49.0568V39.7727ZM111.358 38.4261C111.063 38.4261 110.809 38.3277 110.597 38.1307C110.388 37.9299 110.284 37.6913 110.284 37.4148C110.284 37.1345 110.388 36.8958 110.597 36.6989C110.809 36.4981 111.063 36.3977 111.358 36.3977C111.653 36.3977 111.905 36.4981 112.114 36.6989C112.326 36.8958 112.432 37.1345 112.432 37.4148C112.432 37.6913 112.326 37.9299 112.114 38.1307C111.905 38.3277 111.653 38.4261 111.358 38.4261ZM115.342 39.7727L117.268 43.1705L119.212 39.7727H121.07L118.348 44.1364L121.092 48.5H119.234L117.268 45.2386L115.308 48.5H113.445L116.161 44.1364L113.479 39.7727H115.342ZM129.32 51.6648C128.145 51.6648 127.104 51.5038 126.195 51.1818C125.289 50.8636 124.526 50.3939 123.905 49.7727C123.284 49.1553 122.812 48.3977 122.49 47.5C122.168 46.6023 122.007 45.5777 122.007 44.4261C122.007 43.3049 122.17 42.2973 122.496 41.4034C122.821 40.5095 123.295 39.7481 123.916 39.1193C124.541 38.4867 125.301 38.0038 126.195 37.6705C127.089 37.3371 128.104 37.1705 129.24 37.1705C130.327 37.1705 131.286 37.3409 132.115 37.6818C132.945 38.0227 133.642 38.4905 134.206 39.0852C134.774 39.6799 135.202 40.3617 135.49 41.1307C135.778 41.8996 135.922 42.7121 135.922 43.5682C135.922 44.1667 135.884 44.7519 135.808 45.3239C135.732 45.892 135.592 46.4072 135.388 46.8693C135.187 47.3277 134.895 47.6951 134.513 47.9716C134.134 48.2443 133.642 48.3864 133.036 48.3977C132.714 48.4091 132.401 48.3712 132.098 48.2841C131.795 48.197 131.537 48.0568 131.325 47.8636C131.113 47.6667 130.984 47.4167 130.939 47.1136H130.871C130.78 47.3371 130.628 47.5455 130.416 47.7386C130.204 47.928 129.933 48.0795 129.604 48.1932C129.278 48.303 128.899 48.3485 128.467 48.3295C127.99 48.3106 127.56 48.2027 127.178 48.0057C126.795 47.8087 126.467 47.536 126.195 47.1875C125.926 46.839 125.719 46.4261 125.575 45.9489C125.431 45.4716 125.359 44.9413 125.359 44.358C125.359 43.7973 125.441 43.2955 125.604 42.8523C125.767 42.4053 125.988 42.0208 126.268 41.6989C126.553 41.3731 126.878 41.1155 127.246 40.9261C127.613 40.7367 128.001 40.6174 128.411 40.5682C128.808 40.5227 129.174 40.5341 129.507 40.6023C129.84 40.6705 130.117 40.7746 130.337 40.9148C130.56 41.0549 130.7 41.2083 130.757 41.375H130.831V40.7386H132.229V46.0114C132.229 46.3106 132.306 46.5644 132.462 46.7727C132.621 46.9811 132.846 47.0852 133.138 47.0852C133.482 47.0852 133.751 46.9583 133.945 46.7045C134.142 46.4508 134.28 46.0606 134.359 45.5341C134.443 45.0076 134.484 44.3333 134.484 43.5114C134.484 42.9356 134.407 42.3939 134.251 41.8864C134.1 41.375 133.875 40.9129 133.575 40.5C133.28 40.0833 132.916 39.7254 132.484 39.4261C132.053 39.1269 131.56 38.8958 131.007 38.733C130.458 38.5701 129.85 38.4886 129.183 38.4886C128.278 38.4886 127.473 38.6288 126.768 38.9091C126.064 39.1856 125.469 39.5852 124.984 40.108C124.503 40.6307 124.138 41.2576 123.888 41.9886C123.642 42.7159 123.518 43.5322 123.518 44.4375C123.518 45.3807 123.645 46.2178 123.899 46.9489C124.153 47.6761 124.528 48.2898 125.024 48.7898C125.52 49.2898 126.134 49.6686 126.865 49.9261C127.596 50.1875 128.439 50.3182 129.393 50.3182C129.818 50.3182 130.234 50.2803 130.643 50.2045C131.053 50.1326 131.416 50.0492 131.734 49.9545C132.056 49.8636 132.297 49.7898 132.456 49.733L132.854 50.9773C132.619 51.0871 132.306 51.1951 131.916 51.3011C131.53 51.4072 131.109 51.4943 130.655 51.5625C130.204 51.6307 129.759 51.6648 129.32 51.6648ZM128.797 46.9375C129.289 46.9375 129.685 46.839 129.984 46.642C130.287 46.4451 130.505 46.1515 130.638 45.7614C130.774 45.3674 130.842 44.875 130.842 44.2841C130.839 43.7083 130.765 43.25 130.621 42.9091C130.481 42.5644 130.261 42.3182 129.962 42.1705C129.666 42.0189 129.286 41.9432 128.82 41.9432C128.392 41.9432 128.026 42.0473 127.723 42.2557C127.424 42.464 127.195 42.7462 127.036 43.1023C126.88 43.4583 126.801 43.8542 126.797 44.2898C126.801 44.7481 126.865 45.1799 126.99 45.5852C127.119 45.9867 127.327 46.3125 127.615 46.5625C127.907 46.8125 128.301 46.9375 128.797 46.9375ZM140.957 51.9545C140.264 51.9545 139.668 51.8636 139.168 51.6818C138.671 51.5 138.266 51.2595 137.952 50.9602C137.637 50.661 137.402 50.3333 137.247 49.9773L138.707 49.375C138.81 49.5417 138.946 49.7178 139.116 49.9034C139.291 50.0928 139.526 50.2538 139.821 50.3864C140.12 50.5189 140.505 50.5852 140.974 50.5852C141.618 50.5852 142.151 50.428 142.571 50.1136C142.991 49.803 143.202 49.3068 143.202 48.625V46.9091H143.094C142.991 47.0947 142.844 47.3011 142.651 47.5284C142.461 47.7557 142.2 47.9527 141.866 48.1193C141.533 48.286 141.099 48.3693 140.565 48.3693C139.876 48.3693 139.255 48.2083 138.702 47.8864C138.152 47.5606 137.717 47.0814 137.395 46.4489C137.077 45.8125 136.918 45.0303 136.918 44.1023C136.918 43.1742 137.075 42.3788 137.389 41.7159C137.707 41.053 138.143 40.5455 138.696 40.1932C139.249 39.8371 139.876 39.6591 140.577 39.6591C141.118 39.6591 141.556 39.75 141.889 39.9318C142.223 40.1098 142.482 40.3182 142.668 40.5568C142.857 40.7955 143.003 41.0057 143.105 41.1875H143.23V39.7727H144.895V48.6932C144.895 49.4432 144.721 50.0587 144.372 50.5398C144.024 51.0208 143.552 51.3769 142.957 51.608C142.366 51.839 141.7 51.9545 140.957 51.9545ZM140.94 46.9602C141.429 46.9602 141.842 46.8466 142.179 46.6193C142.52 46.3883 142.777 46.0587 142.952 45.6307C143.13 45.1989 143.219 44.6818 143.219 44.0795C143.219 43.4924 143.132 42.9754 142.957 42.5284C142.783 42.0814 142.527 41.733 142.19 41.483C141.853 41.2292 141.437 41.1023 140.94 41.1023C140.429 41.1023 140.003 41.2348 139.662 41.5C139.321 41.7614 139.063 42.1174 138.889 42.5682C138.719 43.0189 138.634 43.5227 138.634 44.0795C138.634 44.6515 138.721 45.1534 138.895 45.5852C139.069 46.017 139.327 46.3542 139.668 46.5966C140.012 46.839 140.437 46.9602 140.94 46.9602ZM146.673 48.5V39.7727H148.304V41.1932H148.412C148.594 40.7121 148.891 40.3371 149.304 40.0682C149.717 39.7955 150.211 39.6591 150.787 39.6591C151.37 39.6591 151.859 39.7955 152.253 40.0682C152.651 40.3409 152.944 40.7159 153.134 41.1932H153.224C153.433 40.7273 153.764 40.3561 154.219 40.0795C154.673 39.7992 155.215 39.6591 155.844 39.6591C156.635 39.6591 157.281 39.9072 157.781 40.4034C158.285 40.8996 158.537 41.6477 158.537 42.6477V48.5H156.838V42.8068C156.838 42.2159 156.677 41.7879 156.355 41.5227C156.033 41.2576 155.649 41.125 155.202 41.125C154.649 41.125 154.219 41.2955 153.912 41.6364C153.605 41.9735 153.452 42.4072 153.452 42.9375V48.5H151.759V42.6989C151.759 42.2254 151.611 41.8447 151.315 41.5568C151.02 41.2689 150.635 41.125 150.162 41.125C149.84 41.125 149.543 41.2102 149.27 41.3807C149.001 41.5473 148.783 41.7803 148.616 42.0795C148.454 42.3788 148.372 42.7254 148.372 43.1193V48.5H146.673ZM162.854 48.6932C162.301 48.6932 161.801 48.5909 161.354 48.3864C160.907 48.178 160.553 47.8769 160.291 47.483C160.034 47.089 159.905 46.6061 159.905 46.0341C159.905 45.5417 160 45.1364 160.189 44.8182C160.378 44.5 160.634 44.2481 160.956 44.0625C161.278 43.8769 161.638 43.7367 162.036 43.642C162.433 43.5473 162.839 43.4754 163.251 43.4261C163.774 43.3655 164.198 43.3163 164.524 43.2784C164.85 43.2367 165.087 43.1705 165.234 43.0795C165.382 42.9886 165.456 42.8409 165.456 42.6364V42.5966C165.456 42.1004 165.316 41.7159 165.036 41.4432C164.759 41.1705 164.346 41.0341 163.797 41.0341C163.225 41.0341 162.774 41.161 162.445 41.4148C162.119 41.6648 161.893 41.9432 161.768 42.25L160.172 41.8864C160.361 41.3561 160.638 40.928 161.001 40.6023C161.369 40.2727 161.791 40.0341 162.268 39.8864C162.746 39.7348 163.248 39.6591 163.774 39.6591C164.123 39.6591 164.492 39.7008 164.882 39.7841C165.276 39.8636 165.643 40.0114 165.984 40.2273C166.329 40.4432 166.611 40.7519 166.831 41.1534C167.051 41.5511 167.161 42.0682 167.161 42.7045V48.5H165.501V47.3068H165.433C165.323 47.5265 165.159 47.7424 164.939 47.9545C164.719 48.1667 164.437 48.3428 164.092 48.483C163.748 48.6231 163.335 48.6932 162.854 48.6932ZM163.223 47.3295C163.693 47.3295 164.094 47.2367 164.428 47.0511C164.765 46.8655 165.02 46.6231 165.195 46.3239C165.373 46.0208 165.462 45.697 165.462 45.3523V44.2273C165.401 44.2879 165.284 44.3447 165.109 44.3977C164.939 44.447 164.744 44.4905 164.524 44.5284C164.304 44.5625 164.09 44.5947 163.882 44.625C163.674 44.6515 163.5 44.6742 163.359 44.6932C163.03 44.7348 162.729 44.8049 162.456 44.9034C162.187 45.0019 161.971 45.1439 161.808 45.3295C161.649 45.5114 161.57 45.7538 161.57 46.0568C161.57 46.4773 161.725 46.7955 162.036 47.0114C162.346 47.2235 162.742 47.3295 163.223 47.3295ZM168.923 48.5V39.7727H170.622V48.5H168.923ZM169.781 38.4261C169.486 38.4261 169.232 38.3277 169.02 38.1307C168.812 37.9299 168.707 37.6913 168.707 37.4148C168.707 37.1345 168.812 36.8958 169.02 36.6989C169.232 36.4981 169.486 36.3977 169.781 36.3977C170.077 36.3977 170.329 36.4981 170.537 36.6989C170.749 36.8958 170.855 37.1345 170.855 37.4148C170.855 37.6913 170.749 37.9299 170.537 38.1307C170.329 38.3277 170.077 38.4261 169.781 38.4261ZM174.107 36.8636V48.5H172.408V36.8636H174.107ZM177.011 48.608C176.701 48.608 176.434 48.4981 176.21 48.2784C175.987 48.0549 175.875 47.786 175.875 47.4716C175.875 47.161 175.987 46.8958 176.21 46.6761C176.434 46.4527 176.701 46.3409 177.011 46.3409C177.322 46.3409 177.589 46.4527 177.812 46.6761C178.036 46.8958 178.148 47.161 178.148 47.4716C178.148 47.6799 178.095 47.8712 177.989 48.0455C177.886 48.2159 177.75 48.3523 177.58 48.4545C177.409 48.5568 177.22 48.608 177.011 48.608ZM183.599 48.6761C182.755 48.6761 182.027 48.4848 181.418 48.1023C180.812 47.7159 180.346 47.1837 180.02 46.5057C179.694 45.8277 179.531 45.0511 179.531 44.1761C179.531 43.2898 179.698 42.5076 180.031 41.8295C180.365 41.1477 180.834 40.6155 181.44 40.233C182.046 39.8504 182.76 39.6591 183.582 39.6591C184.245 39.6591 184.836 39.7822 185.355 40.0284C185.874 40.2708 186.293 40.6117 186.611 41.0511C186.933 41.4905 187.124 42.0038 187.185 42.5909H185.531C185.44 42.1818 185.232 41.8295 184.906 41.5341C184.584 41.2386 184.152 41.0909 183.611 41.0909C183.137 41.0909 182.723 41.2159 182.366 41.4659C182.014 41.7121 181.74 42.0644 181.543 42.5227C181.346 42.9773 181.247 43.5152 181.247 44.1364C181.247 44.7727 181.344 45.322 181.537 45.7841C181.73 46.2462 182.003 46.6042 182.355 46.858C182.711 47.1117 183.13 47.2386 183.611 47.2386C183.933 47.2386 184.224 47.1799 184.486 47.0625C184.751 46.9413 184.973 46.7689 185.151 46.5455C185.332 46.322 185.459 46.053 185.531 45.7386H187.185C187.124 46.303 186.94 46.8068 186.634 47.25C186.327 47.6932 185.916 48.0417 185.401 48.2955C184.889 48.5492 184.289 48.6761 183.599 48.6761ZM192.178 48.6761C191.359 48.6761 190.645 48.4886 190.036 48.1136C189.426 47.7386 188.952 47.214 188.615 46.5398C188.278 45.8655 188.109 45.0777 188.109 44.1761C188.109 43.2708 188.278 42.4792 188.615 41.8011C188.952 41.1231 189.426 40.5966 190.036 40.2216C190.645 39.8466 191.359 39.6591 192.178 39.6591C192.996 39.6591 193.71 39.8466 194.32 40.2216C194.929 40.5966 195.403 41.1231 195.74 41.8011C196.077 42.4792 196.246 43.2708 196.246 44.1761C196.246 45.0777 196.077 45.8655 195.74 46.5398C195.403 47.214 194.929 47.7386 194.32 48.1136C193.71 48.4886 192.996 48.6761 192.178 48.6761ZM192.183 47.25C192.714 47.25 193.153 47.1098 193.501 46.8295C193.85 46.5492 194.107 46.1761 194.274 45.7102C194.445 45.2443 194.53 44.7311 194.53 44.1705C194.53 43.6136 194.445 43.1023 194.274 42.6364C194.107 42.1667 193.85 41.7898 193.501 41.5057C193.153 41.2216 192.714 41.0795 192.183 41.0795C191.649 41.0795 191.206 41.2216 190.854 41.5057C190.505 41.7898 190.246 42.1667 190.075 42.6364C189.909 43.1023 189.825 43.6136 189.825 44.1705C189.825 44.7311 189.909 45.2443 190.075 45.7102C190.246 46.1761 190.505 46.5492 190.854 46.8295C191.206 47.1098 191.649 47.25 192.183 47.25ZM197.642 48.5V39.7727H199.273V41.1932H199.381C199.563 40.7121 199.86 40.3371 200.273 40.0682C200.686 39.7955 201.18 39.6591 201.756 39.6591C202.339 39.6591 202.828 39.7955 203.222 40.0682C203.619 40.3409 203.913 40.7159 204.102 41.1932H204.193C204.402 40.7273 204.733 40.3561 205.188 40.0795C205.642 39.7992 206.184 39.6591 206.812 39.6591C207.604 39.6591 208.25 39.9072 208.75 40.4034C209.254 40.8996 209.506 41.6477 209.506 42.6477V48.5H207.807V42.8068C207.807 42.2159 207.646 41.7879 207.324 41.5227C207.002 41.2576 206.617 41.125 206.17 41.125C205.617 41.125 205.188 41.2955 204.881 41.6364C204.574 41.9735 204.42 42.4072 204.42 42.9375V48.5H202.727V42.6989C202.727 42.2254 202.58 41.8447 202.284 41.5568C201.989 41.2689 201.604 41.125 201.131 41.125C200.809 41.125 200.511 41.2102 200.239 41.3807C199.97 41.5473 199.752 41.7803 199.585 42.0795C199.422 42.3788 199.341 42.7254 199.341 43.1193V48.5H197.642Z" fill="#CAC6DD"/>
<defs>
<filter id="filter1_d_1_271" x="9" y="9" width="46" height="46" filterUnits="userSpaceOnUse" color-interpolation-filters="sRGB">
<feFlood flood-opacity="0" result="BackgroundImageFix"/>
<feColorMatrix in="SourceAlpha" type="matrix" values="0 0 0 0 0 0 0 0 0 0 0 0 0 0 0 0 0 0 127 0" result="hardAlpha"/>
<feMorphology radius="1" operator="dilate" in="SourceAlpha" result="effect1_dropShadow_1_271"/>
<feOffset/>
<feComposite in2="hardAlpha" operator="out"/>
<feColorMatrix type="matrix" values="0 0 0 0 0.176471 0 0 0 0 0.180392 0 0 0 0 0.282353 0 0 0 1 0"/>
<feBlend mode="normal" in2="BackgroundImageFix" result="effect1_dropShadow_1_271"/>
<feBlend mode="normal" in="SourceGraphic" in2="effect1_dropShadow_1_271" result="shape"/>
</filter>
<linearGradient id="paint0_linear_1_271" x1="110.5" y1="-2.61303e-06" x2="123.293" y2="47.9312" gradientUnits="userSpaceOnUse">
<stop stop-color="#1B1C36"/>
<stop offset="1" stop-color="#70717A"/>
</linearGradient>
<linearGradient id="paint1_linear_1_271" x1="221" y1="60.0976" x2="27.6" y2="-40.414" gradientUnits="userSpaceOnUse">
<stop stop-color="white" stop-opacity="0.07"/>
<stop offset="1" stop-color="white" stop-opacity="0.15"/>
</linearGradient>
</defs>
</svg>
